  0
SECTION
  2
HEADER
  9
$ANGBASE
  50
0.0
  9
$ANGDIR
  70
1
  9
$MEASUREMENT
  70
1
  0
ENDSEC
  0
SECTION
  2
TABLES
  0
TABLE
  2
LTYPE
  70
4
  0
LTYPE
  5
40F
  2
CONTINUOUS
  70
0
  3
Solid line
  72
65
  73
0
  40
0.0
  0
LTYPE
  5
410
  2
DASHDOT
 70
0
  3
Dash Dot ____ _ ____ _
 72
65
 73
4
 40
2.0
 49
1.25
 49
-0.25
 49
0.25
 49
-0.25
  0
LTYPE
  5
411
  2
DASHED
 70
0
  3
Dashed __ __ __ __ __
 72
65
 73
2
 40
0.75
 49
0.5
 49
-0.25
  0
LTYPE
  5
43B
  2
DOTTED
 70
0
  3
Dotted .  .  .  .
 72
65
 73
2
 40
0.2
 49
0.0
 49
-0.2
  0
ENDTAB
  0
TABLE
  2
STYLE
  70
4
  0
STYLE
  2
KICAD
  70
0
  40
0
  41
1
  42
1
  50
0
  71
0
  3
isocp.shx
  0
STYLE
  2
KICADB
  70
0
  40
0
  41
1
  42
1
  50
0
  71
0
  3
isocp.shx
  0
STYLE
  2
KICADI
  70
0
  40
0
  41
1
  42
1
  50
15
  71
0
  3
isocp.shx
  0
STYLE
  2
KICADBI
  70
0
  40
0
  41
1
  42
1
  50
15
  71
0
  3
isocp.shx
  0
ENDTAB
  0
TABLE
  2
LAYER
  70
1
  0
LAYER
  2
BLACK
  70
0
  62
7
  6
CONTINUOUS
  0
ENDTAB
  0
ENDSEC
  0
SECTION
  2
ENTITIES
0
ARC
8
BLACK
10
116.0374999999999943
20
-126.7062999999999988
40
0.5000500000009999
50
0.00561499
51
90.00011458
0
LINE
8
BLACK
6
CONTINUOUS
10
97.7749999999999915
20
-107.6562509999999975
11
97.7749999999999915
21
-111.1562489999999883
0
LINE
8
BLACK
6
CONTINUOUS
10
216.0499999999999829
20
-178.3062500000000057
11
222.0432859999999948
21
-178.3062500000000057
0
ARC
8
BLACK
10
145.9000000000000057
20
-88.6062999999999903
40
0.500000002401
50
89.99988542
51
179.99438501
0
LINE
8
BLACK
6
CONTINUOUS
10
87.9624999999999915
20
-120.6562489999999883
11
87.9624999999999915
21
-117.1562509999999975
0
LINE
8
BLACK
6
CONTINUOUS
10
160.1875009999999975
20
-140.2062499999999829
11
173.1874990000000025
21
-140.2062499999999829
0
LINE
8
BLACK
6
CONTINUOUS
10
260.2000009999999861
20
-102.1062499999999886
11
273.1999989999999912
21
-102.1062499999999886
0
ARC
8
BLACK
10
224.4812999999999761
20
-164.8062999999999931
40
0.5000500073952604
50
90.00996847
51
179.99014611
0
ARC
8
BLACK
10
287.4875000000000114
20
-126.7062999999999988
40
0.5000500000009999
50
0.00561499
51
90.00011458
0
LINE
8
BLACK
6
CONTINUOUS
10
192.7374999999999829
20
-139.7062489999999855
11
192.7374999999999829
21
-136.2062509999999804
0
ARC
8
BLACK
10
81.6063999999999936
20
-158.7561000000000035
40
0.5001500008407478
50
-179.20032817
51
-90.00332216
0
LINE
8
BLACK
6
CONTINUOUS
10
344.6374999999999886
20
-164.3062500000000057
11
334.0187500000000114
21
-164.3062500000000057
0
LINE
8
BLACK
6
CONTINUOUS
10
111.7749999999999915
20
-177.8062489999999798
11
111.7749999999999915
21
-164.8062520000000006
0
ARC
8
BLACK
10
318.4370000000000118
20
-102.6062000000000012
40
0.5000500000009999
50
-179.99438501
51
-89.99988542
0
LINE
8
BLACK
6
CONTINUOUS
10
344.6374999999999886
20
-178.3062500000000057
11
347.0187859999999773
21
-178.3062500000000057
0
LINE
8
BLACK
6
CONTINUOUS
10
302.2749999999999773
20
-120.6562489999999883
11
302.2749999999999773
21
-107.656251999999995
0
ARC
8
BLACK
10
101.75
20
-88.6062000000000012
40
0.4999500000010001
50
-0.00595876
51
90.00011460
0
ARC
8
BLACK
10
331.6374999999999886
20
-177.8061999999999898
40
0.5000500000009999
50
-179.99438501
51
-89.99988542
0
ARC
8
BLACK
10
111.2749999999999915
20
-120.6561999999999983
40
0.500000002401
50
-90.00011458
51
-0.00561499
0
LINE
8
BLACK
6
CONTINUOUS
10
288.7750009999999747
20
-121.15625
11
301.7749989999999798
21
-121.15625
0
LINE
8
BLACK
6
CONTINUOUS
10
339.875
20
-88.1062500000000028
11
336.3999999999999773
21
-88.1062500000000028
0
LINE
8
BLACK
6
CONTINUOUS
10
150.6437499999999829
20
-163.3062500000000057
11
149.4000000000000057
21
-163.3062500000000057
0
ARC
8
BLACK
10
149.375
20
-120.6561999999999983
40
0.500000002401
50
-90.00011458
51
-0.00561499
0
ARC
8
BLACK
10
88.4624999999999915
20
-117.1563000000000017
40
0.500000002401
50
89.99988542
51
179.99438501
0
ARC
8
BLACK
10
174.4181999999999846
20
-177.8061999999999898
40
0.5000500073952604
50
-89.99014611
51
-0.00985389
0
ARC
8
BLACK
10
187.4749999999999943
20
-107.6563000000000017
40
0.5000500000009999
50
0.00561499
51
90.00011458
0
LINE
8
BLACK
6
CONTINUOUS
10
321.8250009999999861
20
-116.65625
11
330.6374989999999912
21
-116.65625
0
ARC
8
BLACK
10
250.6436999999999955
20
-177.8061999999999898
40
0.5000500073952604
50
-89.99014611
51
-0.00985389
0
ARC
8
BLACK
10
198.294099999999986
20
-163.8064999999999998
40
0.5002500008995502
50
-0.80906367
51
89.99656397
0
ARC
8
BLACK
10
176.8563000000000045
20
-164.8062999999999931
40
0.5000500073952604
50
90.00996847
51
179.99014611
0
ARC
8
BLACK
10
103.0441000000000003
20
-145.7564999999999884
40
0.5002500008995502
50
-0.80906367
51
89.99656397
0
LINE
8
BLACK
6
CONTINUOUS
10
108.8937499999999972
20
-164.3062500000000057
11
98.2749999999999915
21
-164.3062500000000057
0
LINE
8
BLACK
6
CONTINUOUS
10
107.8000009999999946
20
-102.1062499999999886
11
120.7999989999999997
21
-102.1062499999999886
0
ARC
8
BLACK
10
236.3874999999999886
20
-126.7062999999999988
40
0.500000002401
50
89.99988542
51
179.99438501
0
ARC
8
BLACK
10
220.8125
20
-145.7562000000000069
40
0.4999500000010001
50
-0.00595876
51
90.00011460
0
LINE
8
BLACK
6
CONTINUOUS
10
217.8624999999999829
20
-142.0714999999999861
11
257.5500000000000114
21
-142.0714999999999861
0
LINE
8
BLACK
6
CONTINUOUS
10
309.9375
20
-143.6589999999999918
11
270.25
21
-143.6589999999999918
0
ARC
8
BLACK
10
268.4375
20
-126.7061999999999955
40
0.4999500000010001
50
-0.00595876
51
90.00011460
0
ARC
8
BLACK
10
197.2874999999999943
20
-136.2062999999999988
40
0.5000500000009999
50
0.00561499
51
90.00011458
0
ARC
8
BLACK
10
164.9499999999999886
20
-88.6062999999999903
40
0.500000002401
50
89.99988542
51
179.99438501
0
ARC
8
BLACK
10
135.0875000000000057
20
-164.8062999999999931
40
0.5000500000009999
50
0.00561499
51
90.00011458
0
LINE
8
BLACK
6
CONTINUOUS
10
334.6692499999999768
20
-159.7490779999999972
11
334.6692499999999768
21
-145.7562139999999999
0
LINE
8
BLACK
6
CONTINUOUS
10
193.5250010000000032
20
-121.15625
11
206.5249989999999798
21
-121.15625
0
LINE
8
BLACK
6
CONTINUOUS
10
301.7749989999999798
20
-107.15625
11
288.7750009999999747
21
-107.15625
0
LINE
8
BLACK
6
CONTINUOUS
10
76.5750000000000028
20
-142.0714999999999861
11
118.6437499999999972
21
-142.0714999999999861
0
ARC
8
BLACK
10
331.6374999999999886
20
-107.6563000000000017
40
0.500000002401
50
89.99988542
51
179.99438501
0
ARC
8
BLACK
10
335.169399999999996
20
-159.7561000000000035
40
0.5001500008997301
50
-180.80436775
51
-90.00343672
0
ARC
8
BLACK
10
231.625
20
-120.6561999999999983
40
0.5000500000009999
50
-179.99438501
51
-89.99988542
0
ARC
8
BLACK
10
331.6374999999999886
20
-120.6561999999999983
40
0.5000500000009999
50
-179.99438501
51
-89.99988542
0
ARC
8
BLACK
10
154.1374999999999886
20
-139.7061999999999955
40
0.500000002401
50
-90.00011458
51
-0.00561499
0
ARC
8
BLACK
10
224.4813999999999794
20
-177.8060999999999865
40
0.5001500008997301
50
-179.20044271
51
-90.00343672
0
ARC
8
BLACK
10
216.0499999999999829
20
-88.6062000000000012
40
0.4999500000010001
50
-0.00595876
51
90.00011460
0
ARC
8
BLACK
10
263.6750000000000114
20
-120.6561999999999983
40
0.500000002401
50
-90.00011458
51
-0.00561499
0
LINE
8
BLACK
6
CONTINUOUS
10
122.0874999999999915
20
-178.3062500000000057
11
132.7062499999999829
21
-178.3062500000000057
0
LINE
8
BLACK
6
CONTINUOUS
10
202.5499999999999829
20
-88.6062510000000003
11
202.5499999999999829
21
-101.6062489999999912
0
LINE
8
BLACK
6
CONTINUOUS
10
316.0558709999999678
20
-141.2062499999999829
11
322.0557860000000119
21
-141.2062499999999829
0
LINE
8
BLACK
6
CONTINUOUS
10
263.6999999999999886
20
-178.3062500000000057
11
269.6999999999999886
21
-178.3062500000000057
0
LINE
8
BLACK
6
CONTINUOUS
10
178.7374999999999829
20
-126.7062509999999946
11
178.7374999999999829
21
-139.7062489999999855
0
LINE
8
BLACK
6
CONTINUOUS
10
158.8999989999999798
20
-164.3062500000000057
11
155.9000000000000057
21
-164.3062500000000057
0
LINE
8
BLACK
6
CONTINUOUS
10
309.7062500000000114
20
-145.7562139999999999
11
309.7062500000000114
21
-158.7630800000000022
0
ARC
8
BLACK
10
103.0441999999999894
20
-159.7562000000000069
40
0.5000500073952604
50
-89.99014611
51
-0.00985389
0
LINE
8
BLACK
6
CONTINUOUS
10
192.7374999999999829
20
-130.2062489999999855
11
192.7374999999999829
21
-126.7062519999999921
0
LINE
8
BLACK
6
CONTINUOUS
10
135.0874989999999798
20
-164.3062500000000057
11
132.7062499999999829
21
-164.3062500000000057
0
ARC
8
BLACK
10
144.6439000000000021
20
-177.8060999999999865
40
0.5001500008997301
50
-179.20032817
51
-90.00343672
0
ARC
8
BLACK
10
284.0124999999999886
20
-158.7562000000000069
40
0.5000500000009999
50
-179.99438501
51
-89.99988542
0
ARC
8
BLACK
10
105.943799999999996
20
-161.915300000000002
40
0.7937000015749023
50
-269.99639104
51
-90.00360941
0
LINE
8
BLACK
6
CONTINUOUS
10
292.2499990000000025
20
-88.1062500000000028
11
279.2500009999999975
21
-88.1062500000000028
0
LINE
8
BLACK
6
CONTINUOUS
10
333.2312499999999886
20
-158.7562859999999887
11
333.2312499999999886
21
-145.7635630000000049
0
ARC
8
BLACK
10
250.6435999999999922
20
-163.8062999999999931
40
0.5000500000009999
50
0.00756304
51
90.00011458
0
LINE
8
BLACK
6
CONTINUOUS
10
220.8124990000000025
20
-145.2562499999999943
11
207.8125009999999975
21
-145.2562499999999943
0
LINE
8
BLACK
6
CONTINUOUS
10
259.4124999999999659
20
-158.7562489999999968
11
259.4124999999999659
21
-145.7562519999999893
0
LINE
8
BLACK
6
CONTINUOUS
10
203.0500009999999804
20
-102.1062499999999886
11
216.0499989999999855
21
-102.1062499999999886
0
ARC
8
BLACK
10
116.0374999999999943
20
-139.7061999999999955
40
0.500000002401
50
-90.00011458
51
-0.00561499
0
ARC
8
BLACK
10
222.0430999999999813
20
-163.8064999999999998
40
0.5002500008995502
50
-0.80906367
51
89.99656397
0
LINE
8
BLACK
6
CONTINUOUS
10
262.5812500000000114
20
-178.3062500000000057
11
263.6999999999999886
21
-178.3062500000000057
0
ARC
8
BLACK
10
301.7749999999999773
20
-107.6561999999999983
40
0.4999500000010001
50
-0.00595876
51
90.00011460
0
ARC
8
BLACK
10
241.1499999999999773
20
-88.6062999999999903
40
0.500000002401
50
89.99988542
51
179.99438501
0
ARC
8
BLACK
10
254.1499999999999773
20
-101.6062000000000012
40
0.500000002401
50
-90.00011458
51
-0.00561499
0
LINE
8
BLACK
6
CONTINUOUS
10
254.1499989999999798
20
-88.1062500000000028
11
241.1500010000000032
21
-88.1062500000000028
0
ARC
8
BLACK
10
197.
20
-88.6062000000000012
40
0.4999500000010001
50
-0.00595876
51
90.00011460
0
LINE
8
BLACK
6
CONTINUOUS
10
244.6437499999999829
20
-178.3062500000000057
11
245.9192499999999768
21
-178.3062500000000057
0
ARC
8
BLACK
10
169.7125000000000057
20
-158.7562000000000069
40
0.5000500000009999
50
-179.99438501
51
-89.99988542
0
LINE
8
BLACK
6
CONTINUOUS
10
198.2942500000000052
20
-178.3062500000000057
11
203.0499999999999829
21
-178.3062500000000057
0
LINE
8
BLACK
6
CONTINUOUS
10
178.4499999999999886
20
-101.6062489999999912
11
178.4499999999999886
21
-88.6062510000000003
0
ARC
8
BLACK
10
257.5500000000000114
20
-104.7652999999999963
40
0.7938
50
-90.00000000
51
90.00000000
0
LINE
8
BLACK
6
CONTINUOUS
10
222.5432500000000005
20
-177.8062860000000001
11
222.5432500000000005
21
-163.8135629999999878
0
LINE
8
BLACK
6
CONTINUOUS
10
107.2999999999999972
20
-88.6062510000000003
11
107.2999999999999972
21
-101.6062489999999912
0
LINE
8
BLACK
6
CONTINUOUS
10
349.9000019999999722
20
-180.3062500000000057
11
69.1999989999999912
21
-180.3062500000000057
0
LINE
8
BLACK
6
CONTINUOUS
10
217.8624999999999829
20
-123.021499999999989
11
268.6624999999999659
21
-123.021499999999989
0
ARC
8
BLACK
10
274.4875000000000114
20
-139.7061999999999955
40
0.5000500000009999
50
-179.99438501
51
-89.99988542
0
LINE
8
BLACK
6
CONTINUOUS
10
103.0375009999999918
20
-140.2062499999999829
11
116.0374989999999968
21
-140.2062499999999829
0
LINE
8
BLACK
6
CONTINUOUS
10
273.1999999999999886
20
-164.3062500000000057
11
270.1999999999999886
21
-164.3062500000000057
0
LINE
8
BLACK
6
CONTINUOUS
10
323.7062500000000114
20
-177.8062860000000001
11
323.7062500000000114
21
-164.8135629999999878
0
ARC
8
BLACK
10
317.3499999999999659
20
-101.6062000000000012
40
0.5000500000009999
50
-179.99438501
51
-89.99988542
0
ARC
8
BLACK
10
245.9124999999999943
20
-145.7562999999999818
40
0.500000002401
50
89.99988542
51
179.99438501
0
ARC
8
BLACK
10
141.1374999999999886
20
-126.7062999999999988
40
0.500000002401
50
89.99988542
51
179.99438501
0
LINE
8
BLACK
6
CONTINUOUS
10
254.6499999999999773
20
-101.6062489999999912
11
254.6499999999999773
21
-88.6062510000000003
0
ARC
8
BLACK
10
212.5749999999999886
20
-120.6561999999999983
40
0.5000500000009999
50
-179.99438501
51
-89.99988542
0
LINE
8
BLACK
6
CONTINUOUS
10
259.6999999999999886
20
-164.8062510000000032
11
259.6999999999999886
21
-168.3062489999999798
0
LINE
8
BLACK
6
CONTINUOUS
10
336.3999999999999773
20
-88.1062500000000028
11
330.3499999999999659
21
-88.1062500000000028
0
ARC
8
BLACK
10
226.8624999999999829
20
-158.7562000000000069
40
0.5000500000009999
50
-179.99438501
51
-89.99988542
0
ARC
8
BLACK
10
255.4375
20
-139.7061999999999955
40
0.5000500000009999
50
-179.99438501
51
-89.99988542
0
LINE
8
BLACK
6
CONTINUOUS
10
321.3249999999999886
20
-111.1562489999999883
11
321.3249999999999886
21
-107.656251999999995
0
LINE
8
BLACK
6
CONTINUOUS
10
278.9812499999999886
20
-161.1214999999999975
11
305.9687999999999874
21
-161.1214999999999975
0
LINE
8
BLACK
6
CONTINUOUS
10
297.0124989999999912
20
-145.2562499999999943
11
284.0125009999999861
21
-145.2562499999999943
0
LINE
8
BLACK
6
CONTINUOUS
10
268.4374990000000025
20
-126.2062499999999972
11
255.4375009999999975
21
-126.2062499999999972
0
ARC
8
BLACK
10
311.2933999999999628
20
-159.7561000000000035
40
0.5001500008997301
50
-179.20044271
51
-90.00343672
0
LINE
8
BLACK
6
CONTINUOUS
10
269.7250009999999634
20
-121.15625
11
282.7249989999999684
21
-121.15625
0
ARC
8
BLACK
10
94.6060999999999979
20
-145.7564999999999884
40
0.5002500008995502
50
-0.80906367
51
89.99656397
0
LINE
8
BLACK
6
CONTINUOUS
10
244.6249990000000025
20
-107.15625
11
231.6250009999999975
21
-107.15625
0
ARC
8
BLACK
10
337.4936999999999898
20
-139.7061999999999955
40
0.5000500073952604
50
-89.99014611
51
-0.00985389
0
LINE
8
BLACK
6
CONTINUOUS
10
197.7874999999999943
20
-136.2062509999999804
11
197.7874999999999943
21
-139.7062489999999855
0
ARC
8
BLACK
10
118.6437999999999988
20
-142.8652999999999906
40
0.7938000015747039
50
-90.00360941
51
90.00360896
0
ARC
8
BLACK
10
188.7624999999999886
20
-145.7562999999999818
40
0.500000002401
50
89.99988542
51
179.99438501
0
LINE
8
BLACK
6
CONTINUOUS
10
260.2000009999999861
20
-178.3062500000000057
11
262.5812500000000114
21
-178.3062500000000057
0
LINE
8
BLACK
6
CONTINUOUS
10
108.8937499999999972
20
-178.3062500000000057
11
111.274998999999994
21
-178.3062500000000057
0
LINE
8
BLACK
6
CONTINUOUS
10
270.1999999999999886
20
-164.3062500000000057
11
270.1999999999999886
21
-163.8062510000000032
0
ARC
8
BLACK
10
111.2749999999999915
20
-164.8061999999999898
40
0.4999500000010001
50
-0.00595876
51
90.00011460
0
LINE
8
BLACK
6
CONTINUOUS
10
187.4749989999999968
20
-107.15625
11
174.4750009999999918
21
-107.15625
0
LINE
8
BLACK
6
CONTINUOUS
10
149.3749990000000025
20
-107.15625
11
136.3750009999999975
21
-107.15625
0
ARC
8
BLACK
10
332.9687000000000126
20
-121.6562999999999874
40
0.50005000249975
50
0.00572901
51
89.99427099
0
LINE
8
BLACK
6
CONTINUOUS
10
269.6999999999999886
20
-178.3062500000000057
11
273.1999999999999886
21
-178.3062500000000057
0
LINE
8
BLACK
6
CONTINUOUS
10
307.0374999999999659
20
-139.7062489999999855
11
307.0374999999999659
21
-126.7062519999999921
0
LINE
8
BLACK
6
CONTINUOUS
10
135.0874989999999798
20
-126.2062499999999972
11
122.0875009999999889
21
-126.2062499999999972
0
LINE
8
BLACK
6
CONTINUOUS
10
126.8500009999999918
20
-102.1062499999999886
11
139.8499989999999968
21
-102.1062499999999886
0
ARC
8
BLACK
10
323.2060999999999922
20
-164.8064999999999998
40
0.5002500008995502
50
-0.80906367
51
89.99656397
0
LINE
8
BLACK
6
CONTINUOUS
10
204.1437499999999829
20
-164.3062500000000057
11
203.0499999999999829
21
-164.3062500000000057
0
ARC
8
BLACK
10
150.6624999999999943
20
-158.7562000000000069
40
0.5000500000009999
50
-179.99438501
51
-89.99988542
0
ARC
8
BLACK
10
277.9624999999999773
20
-158.7562000000000069
40
0.500000002401
50
-90.00011458
51
-0.00561499
0
ARC
8
BLACK
10
173.1875
20
-139.7061999999999955
40
0.500000002401
50
-90.00011458
51
-0.00561499
0
LINE
8
BLACK
6
CONTINUOUS
10
83.2000000000000028
20
-101.6062489999999912
11
83.2000000000000028
21
-88.6062510000000003
0
ARC
8
BLACK
10
345.6374999999999886
20
-107.9151999999999987
40
0.50005
50
-179.99427042
51
-90.00000000
0
LINE
8
BLACK
6
CONTINUOUS
10
135.5875000000000057
20
-177.8062489999999798
11
135.5875000000000057
21
-164.8062510000000032
0
LINE
8
BLACK
6
CONTINUOUS
10
201.1937999999999818
20
-142.0714999999999861
11
137.6937499999999943
21
-142.0714999999999861
0
LINE
8
BLACK
6
CONTINUOUS
10
145.4000000000000057
20
-88.6062510000000003
11
145.4000000000000057
21
-101.6062489999999912
0
ARC
8
BLACK
10
136.375
20
-120.6561999999999983
40
0.5000500000009999
50
-179.99438501
51
-89.99988542
0
ARC
8
BLACK
10
225.5749999999999886
20
-107.6561999999999983
40
0.4999500000010001
50
-0.00595876
51
90.00011460
0
LINE
8
BLACK
6
CONTINUOUS
10
349.8999999999999773
20
-101.6062489999999912
11
349.8999999999999773
21
-88.6062510000000003
0
LINE
8
BLACK
6
CONTINUOUS
10
159.6875
20
-126.7062509999999946
11
159.6875
21
-139.7062489999999855
0
LINE
8
BLACK
6
CONTINUOUS
10
326.875
20
-88.1062500000000028
11
324.4370000000000118
21
-88.1062500000000028
0
LINE
8
BLACK
6
CONTINUOUS
10
173.1874990000000025
20
-126.2062499999999972
11
160.1875009999999975
21
-126.2062499999999972
0
ARC
8
BLACK
10
284.0124999999999886
20
-164.8062999999999931
40
0.500000002401
50
89.99988542
51
179.99438501
0
ARC
8
BLACK
10
239.9192999999999927
20
-163.8062999999999931
40
0.5000500073952604
50
90.00996847
51
179.99014611
0
LINE
8
BLACK
6
CONTINUOUS
10
88.7500009999999975
20
-102.1062499999999886
11
101.7499989999999883
21
-102.1062499999999886
0
LINE
8
BLACK
6
CONTINUOUS
10
244.6437499999999829
20
-163.3062500000000057
11
239.919212999999985
21
-163.3062500000000057
0
LINE
8
BLACK
6
CONTINUOUS
10
333.46875
20
-121.65625
11
333.46875
21
-125.7062499999999972
0
ARC
8
BLACK
10
347.0686999999999784
20
-117.2652999999999963
40
0.50005000249975
50
0.00572901
51
89.99427099
0
LINE
8
BLACK
6
CONTINUOUS
10
95.3937499999999972
20
-164.8062139999999829
11
95.3937499999999972
21
-177.8130809999999826
0
ARC
8
BLACK
10
298.3000000000000114
20
-101.6062000000000012
40
0.5000500000009999
50
-179.99438501
51
-89.99988542
0
LINE
8
BLACK
6
CONTINUOUS
10
239.9193679999999915
20
-178.3062500000000057
11
244.6437499999999829
21
-178.3062500000000057
0
ARC
8
BLACK
10
294.0625
20
-123.8152999999999935
40
0.7937
50
-270.00000000
51
-90.00000000
0
LINE
8
BLACK
6
CONTINUOUS
10
347.5687499999999659
20
-117.2652499999999947
11
347.5687499999999659
21
-130.3652500000000032
0
LINE
8
BLACK
6
CONTINUOUS
10
287.4874990000000139
20
-126.2062499999999972
11
274.4875010000000088
21
-126.2062499999999972
0
LINE
8
BLACK
6
CONTINUOUS
10
121.5874999999999915
20
-126.7062509999999946
11
121.5874999999999915
21
-139.7062489999999855
0
LINE
8
BLACK
6
CONTINUOUS
10
339.4317499999999654
20
-139.2249999999999943
11
339.4317499999999654
21
-140.7130809999999883
0
LINE
8
BLACK
6
CONTINUOUS
10
307.8250009999999861
20
-178.3062500000000057
11
310.2062500000000114
21
-178.3062500000000057
0
ARC
8
BLACK
10
263.6750000000000114
20
-107.6561999999999983
40
0.4999500000010001
50
-0.00595876
51
90.00011460
0
LINE
8
BLACK
6
CONTINUOUS
10
71.5812499999999972
20
-164.8062510000000032
11
71.5812499999999972
21
-177.8062489999999798
0
ARC
8
BLACK
10
144.6124999999999829
20
-145.7562999999999818
40
0.5000500000009999
50
0.00561499
51
90.00011458
0
LINE
8
BLACK
6
CONTINUOUS
10
345.6374999999999886
20
-116.7652499999999947
11
347.0687499999999659
21
-116.7652499999999947
0
ARC
8
BLACK
10
206.5249999999999773
20
-107.6561999999999983
40
0.4999500000010001
50
-0.00595876
51
90.00011460
0
LINE
8
BLACK
6
CONTINUOUS
10
76.5750000000000028
20
-103.9714999999999918
11
118.6437499999999972
21
-103.9714999999999918
0
ARC
8
BLACK
10
87.4624999999999915
20
-177.8061999999999898
40
0.500000002401
50
-90.00011458
51
-0.00561499
0
ARC
8
BLACK
10
332.7310999999999694
20
-145.7564999999999884
40
0.5002500008405797
50
-0.80906367
51
89.99667851
0
LINE
8
BLACK
6
CONTINUOUS
10
245.4124999999999943
20
-145.7562509999999918
11
245.4124999999999943
21
-158.7562489999999968
0
LINE
8
BLACK
6
CONTINUOUS
10
323.2061299999999733
20
-164.3062500000000057
11
320.8249999999999886
21
-164.3062500000000057
0
LINE
8
BLACK
6
CONTINUOUS
10
188.2624999999999886
20
-145.7562509999999918
11
188.2624999999999886
21
-158.7562489999999968
0
ARC
8
BLACK
10
97.044399999999996
20
-159.7561000000000035
40
0.5001500008407478
50
-179.20032817
51
-90.00332216
0
ARC
8
BLACK
10
299.3936999999999671
20
-177.8061999999999898
40
0.5000500073952604
50
-89.99014611
51
-0.00985389
0
ARC
8
BLACK
10
216.0499999999999829
20
-101.6062000000000012
40
0.500000002401
50
-90.00011458
51
-0.00561499
0
LINE
8
BLACK
6
CONTINUOUS
10
311.2999990000000139
20
-88.1062500000000028
11
298.3000010000000088
21
-88.1062500000000028
0
LINE
8
BLACK
6
CONTINUOUS
10
349.8999999999999773
20
-145.7312509999999861
11
349.8999999999999773
21
-158.7562489999999968
0
LINE
8
BLACK
6
CONTINUOUS
10
79.1681289999999933
20
-145.2562499999999943
11
73.1682509999999979
21
-145.2562499999999943
0
LINE
8
BLACK
6
CONTINUOUS
10
263.1999999999999886
20
-163.8062510000000032
11
263.1999999999999886
21
-164.3062500000000057
0
LINE
8
BLACK
6
CONTINUOUS
10
250.1749999999999829
20
-107.6562509999999975
11
250.1749999999999829
21
-120.6562489999999883
0
LINE
8
BLACK
6
CONTINUOUS
10
179.2375009999999804
20
-140.2062499999999829
11
192.2374989999999855
21
-140.2062499999999829
0
ARC
8
BLACK
10
222.0999999999999943
20
-88.6062999999999903
40
0.500000002401
50
89.99988542
51
179.99438501
0
LINE
8
BLACK
6
CONTINUOUS
10
149.4000000000000057
20
-178.3062500000000057
11
150.6437499999999829
21
-178.3062500000000057
0
ARC
8
BLACK
10
311.3000000000000114
20
-88.6062000000000012
40
0.4999500000010001
50
-0.00595876
51
90.00011460
0
LINE
8
BLACK
6
CONTINUOUS
10
254.9375
20
-126.7062509999999946
11
254.9375
21
-139.7062489999999855
0
LINE
8
BLACK
6
CONTINUOUS
10
226.8625009999999804
20
-159.2562499999999943
11
239.8624989999999855
21
-159.2562499999999943
0
LINE
8
BLACK
6
CONTINUOUS
10
118.6437499999999972
20
-124.6089999999999947
11
76.5750000000000028
21
-124.6089999999999947
0
ARC
8
BLACK
10
201.7624999999999886
20
-158.7562000000000069
40
0.500000002401
50
-90.00011458
51
-0.00561499
0
LINE
8
BLACK
6
CONTINUOUS
10
266.28125
20
-105.558999
11
314.6999999999999886
21
-105.558999
0
ARC
8
BLACK
10
332.7312000000000012
20
-158.7562000000000069
40
0.5000500073952604
50
-89.99014611
51
-0.00985389
0
LINE
8
BLACK
6
CONTINUOUS
10
332.7311290000000099
20
-145.2562499999999943
11
323.2062500000000114
21
-145.2562499999999943
0
LINE
8
BLACK
6
CONTINUOUS
10
197.5
20
-101.6062489999999912
11
197.5
21
-88.6062519999999978
0
LINE
8
BLACK
6
CONTINUOUS
10
211.7874999999999943
20
-139.7062489999999855
11
211.7874999999999943
21
-126.7062519999999921
0
ARC
8
BLACK
10
97.2749999999999915
20
-111.1561999999999983
40
0.500000002401
50
-90.00011458
51
-0.00561499
0
ARC
8
BLACK
10
72.0812999999999988
20
-177.8061999999999898
40
0.5000500024007599
50
-179.99438558
51
-90.00561442
0
LINE
8
BLACK
6
CONTINUOUS
10
264.9625009999999747
20
-159.2562499999999943
11
277.9624989999999798
21
-159.2562499999999943
0
LINE
8
BLACK
6
CONTINUOUS
10
198.2875009999999918
20
-140.2062499999999829
11
211.2874989999999968
21
-140.2062499999999829
0
ARC
8
BLACK
10
135.0875000000000057
20
-139.7061999999999955
40
0.500000002401
50
-90.00011458
51
-0.00561499
0
LINE
8
BLACK
6
CONTINUOUS
10
320.8249999999999886
20
-178.3062500000000057
11
323.2062859999999773
21
-178.3062500000000057
0
ARC
8
BLACK
10
176.8563999999999794
20
-177.8060999999999865
40
0.5001500008997301
50
-179.20044271
51
-90.00343672
0
LINE
8
BLACK
6
CONTINUOUS
10
297.0124999999999886
20
-164.3062500000000057
11
286.3937500000000114
21
-164.3062500000000057
0
ARC
8
BLACK
10
119.7062999999999988
20
-164.8062999999999931
40
0.5000500073952604
50
90.00996847
51
179.99014611
0
LINE
8
BLACK
6
CONTINUOUS
10
169.2125000000000057
20
-145.7562509999999918
11
169.2125000000000057
21
-158.7562489999999968
0
ARC
8
BLACK
10
111.2749999999999915
20
-107.6561999999999983
40
0.4999500000010001
50
-0.00595876
51
90.00011460
0
ARC
8
BLACK
10
260.1999999999999886
20
-164.8062999999999931
40
0.500000002401
50
89.99988542
51
179.99438501
0
ARC
8
BLACK
10
95.8937999999999988
20
-164.8062999999999931
40
0.5000500073952604
50
90.00985389
51
179.99014611
0
LINE
8
BLACK
6
CONTINUOUS
10
69.2000000000000028
20
-88.6062510000000003
11
69.2000000000000028
21
-101.6062489999999912
0
LINE
8
BLACK
6
CONTINUOUS
10
105.9437499999999943
20
-162.7089990000000057
11
140.0749999999999886
21
-162.7089990000000057
0
LINE
8
BLACK
6
CONTINUOUS
10
249.8874999999999886
20
-139.7062489999999855
11
249.8874999999999886
21
-126.7062509999999946
0
ARC
8
BLACK
10
139.8499999999999943
20
-88.6062999999999903
40
0.5000500000009999
50
0.00561499
51
90.00011458
0
LINE
8
BLACK
6
CONTINUOUS
10
111.274998999999994
20
-164.3062500000000057
11
108.8937499999999972
21
-164.3062500000000057
0
LINE
8
BLACK
6
CONTINUOUS
10
98.2749999999999915
20
-178.3062500000000057
11
108.8937499999999972
21
-178.3062500000000057
0
LINE
8
BLACK
6
CONTINUOUS
10
126.3499999999999943
20
-88.6062510000000003
11
126.3499999999999943
21
-101.6062489999999912
0
ARC
8
BLACK
10
335.1692999999999643
20
-145.7562999999999818
40
0.5000500073952604
50
90.00996847
51
179.99014611
0
ARC
8
BLACK
10
260.1999999999999886
20
-88.6062999999999903
40
0.500000002401
50
89.99988542
51
179.99438501
0
LINE
8
BLACK
6
CONTINUOUS
10
278.4624999999999773
20
-158.7562489999999968
11
278.4624999999999773
21
-145.7562509999999918
0
LINE
8
BLACK
6
CONTINUOUS
10
120.7999989999999997
20
-88.1062500000000028
11
107.8000009999999946
21
-88.1062500000000028
0
LINE
8
BLACK
6
CONTINUOUS
10
230.8374999999999773
20
-139.7062489999999855
11
230.8374999999999773
21
-126.7062509999999946
0
LINE
8
BLACK
6
CONTINUOUS
10
241.1500010000000032
20
-102.1062499999999886
11
254.1499989999999798
21
-102.1062499999999886
0
ARC
8
BLACK
10
139.8499999999999943
20
-101.6062000000000012
40
0.500000002401
50
-90.00011458
51
-0.00561499
0
LINE
8
BLACK
6
CONTINUOUS
10
259.1999989999999912
20
-168.8062500000000057
11
251.6437880000000007
21
-168.8062500000000057
0
LINE
8
BLACK
6
CONTINUOUS
10
311.2932500000000005
20
-145.2562499999999943
11
310.2062129999999911
21
-145.2562499999999943
0
ARC
8
BLACK
10
76.5750000000000028
20
-142.8652999999999906
40
0.7937
50
-270.00000000
51
-90.00000000
0
LINE
8
BLACK
6
CONTINUOUS
10
297.8000000000000114
20
-88.6062510000000003
11
297.8000000000000114
21
-101.6062489999999912
0
ARC
8
BLACK
10
346.0186999999999671
20
-114.9151999999999987
40
0.500049002499755
50
-89.99438558
51
-0.00572902
0
ARC
8
BLACK
10
320.8249999999999886
20
-107.6561999999999983
40
0.4999500000010001
50
-0.00595876
51
90.00011460
0
LINE
8
BLACK
6
CONTINUOUS
10
216.0499989999999855
20
-88.1062500000000028
11
203.0500009999999804
21
-88.1062500000000028
0
ARC
8
BLACK
10
201.7624999999999886
20
-145.7562999999999818
40
0.5000500000009999
50
0.00561499
51
90.00011458
0
LINE
8
BLACK
6
CONTINUOUS
10
192.2942500000000052
20
-178.3062500000000057
11
198.2942500000000052
21
-178.3062500000000057
0
LINE
8
BLACK
6
CONTINUOUS
10
344.6374989999999912
20
-107.15625
11
331.6375009999999861
21
-107.15625
0
ARC
8
BLACK
10
341.1691999999999894
20
-159.7562000000000069
40
0.5000500073952604
50
-89.99014611
51
-0.00985389
0
LINE
8
BLACK
6
CONTINUOUS
10
130.3249989999999912
20
-107.15625
11
117.3250010000000003
21
-107.15625
0
ARC
8
BLACK
10
230.3374999999999773
20
-126.7062999999999988
40
0.5000500000009999
50
0.00561499
51
90.00011458
0
CIRCLE
8
BLACK
10
209.5499999999999829
20
-105.1312499999999943
40
1.2
0
LINE
8
BLACK
6
CONTINUOUS
10
155.4250009999999804
20
-121.15625
11
168.4249989999999855
21
-121.15625
0
ARC
8
BLACK
10
244.625
20
-120.6561999999999983
40
0.500000002401
50
-90.00011458
51
-0.00561499
0
LINE
8
BLACK
6
CONTINUOUS
10
137.6937499999999943
20
-105.5589999999999975
11
201.1937999999999818
21
-105.5589999999999975
0
ARC
8
BLACK
10
348.3129999999999882
20
-102.6062000000000012
40
0.500000002401
50
-90.00011458
51
-0.00561499
0
LINE
8
BLACK
6
CONTINUOUS
10
216.0432500000000005
20
-178.3062500000000057
11
216.0499999999999829
21
-178.3062500000000057
0
LINE
8
BLACK
6
CONTINUOUS
10
284.0125009999999861
20
-159.2562499999999943
11
297.0124989999999912
21
-159.2562499999999943
0
LINE
8
BLACK
6
CONTINUOUS
10
103.544249999999991
20
-159.7562859999999887
11
103.544249999999991
21
-145.7635630000000049
0
LINE
8
BLACK
6
CONTINUOUS
10
334.0187500000000114
20
-178.3062500000000057
11
344.6374999999999886
21
-178.3062500000000057
0
LINE
8
BLACK
6
CONTINUOUS
10
72.6682500000000005
20
-145.7562509999999918
11
72.6682500000000005
21
-159.7562489999999968
0
ARC
8
BLACK
10
251.6436999999999955
20
-174.3061999999999898
40
0.4999500026012601
50
-270.00584475
51
-179.99415525
0
ARC
8
BLACK
10
112.5625
20
-158.7562000000000069
40
0.5000500000009999
50
-179.99438501
51
-89.99988542
0
ARC
8
BLACK
10
140.0749999999999886
20
-161.9151999999999987
40
0.793701
50
-90.00000000
51
90.00000000
0
LINE
8
BLACK
6
CONTINUOUS
10
183.2125000000000057
20
-158.7562489999999968
11
183.2125000000000057
21
-145.7562519999999893
0
ARC
8
BLACK
10
125.5625
20
-145.7562999999999818
40
0.5000500000009999
50
0.00561499
51
90.00011458
0
LINE
8
BLACK
6
CONTINUOUS
10
310.7932500000000005
20
-159.2562499999999943
11
310.7932500000000005
21
-159.7630800000000022
0
ARC
8
BLACK
10
260.1999999999999886
20
-101.6062000000000012
40
0.5000500000009999
50
-179.99438501
51
-89.99988542
0
LINE
8
BLACK
6
CONTINUOUS
10
103.0441299999999956
20
-145.2562499999999943
11
97.0442139999999966
21
-145.2562499999999943
0
ARC
8
BLACK
10
201.1937999999999818
20
-104.7652999999999963
40
0.7938000015747039
50
-90.00360941
51
90.00360896
0
LINE
8
BLACK
6
CONTINUOUS
10
154.6374999999999886
20
-139.7062489999999855
11
154.6374999999999886
21
-126.7062519999999921
0
ARC
8
BLACK
10
174.4180999999999813
20
-163.8064999999999998
40
0.5002500008405797
50
-0.80906367
51
89.99667851
0
ARC
8
BLACK
10
98.2749999999999915
20
-120.6561999999999983
40
0.5000500000009999
50
-179.99438501
51
-89.99988542
0
ARC
8
BLACK
10
89.8436999999999983
20
-139.7061999999999955
40
0.5000500073952604
50
-89.99014611
51
-0.00985389
0
LINE
8
BLACK
6
CONTINUOUS
10
341.8129999999999882
20
-102.1062499999999886
11
341.8129999999999882
21
-102.6062489999999912
0
ARC
8
BLACK
10
244.625
20
-107.6561999999999983
40
0.4999500000010001
50
-0.00595876
51
90.00011460
0
LINE
8
BLACK
6
CONTINUOUS
10
117.3250010000000003
20
-121.15625
11
130.3249989999999912
21
-121.15625
0
ARC
8
BLACK
10
311.3000000000000114
20
-101.6062000000000012
40
0.500000002401
50
-90.00011458
51
-0.00561499
0
ARC
8
BLACK
10
293.5374999999999659
20
-139.7061999999999955
40
0.5000500000009999
50
-179.99438501
51
-89.99988542
0
ARC
8
BLACK
10
284.0124999999999886
20
-177.8061999999999898
40
0.5000500000009999
50
-179.99438501
51
-89.99988542
0
LINE
8
BLACK
6
CONTINUOUS
10
331.1374999999999886
20
-117.1562509999999975
11
331.1374999999999886
21
-120.6562489999999883
0
ARC
8
BLACK
10
249.3874999999999886
20
-126.7062999999999988
40
0.5000500000009999
50
0.00561499
51
90.00011458
0
LINE
8
BLACK
6
CONTINUOUS
10
245.9192499999999768
20
-163.3062500000000057
11
244.6437499999999829
21
-163.3062500000000057
0
LINE
8
BLACK
6
CONTINUOUS
10
189.8562000000000012
20
-164.3062500000000057
11
176.8562129999999968
21
-164.3062500000000057
0
LINE
8
BLACK
6
CONTINUOUS
10
319.7312499999999886
20
-159.2562499999999943
11
323.2062500000000114
21
-159.2562499999999943
0
LINE
8
BLACK
6
CONTINUOUS
10
239.8624989999999855
20
-145.2562499999999943
11
226.8625009999999804
21
-145.2562499999999943
0
ARC
8
BLACK
10
254.1499999999999773
20
-88.6062999999999903
40
0.5000500000009999
50
0.00561499
51
90.00011458
0
LINE
8
BLACK
6
CONTINUOUS
10
314.6999999999999886
20
-103.9714999999999918
11
266.28125
21
-103.9714999999999918
0
ARC
8
BLACK
10
273.1999999999999886
20
-101.6062000000000012
40
0.500000002401
50
-90.00011458
51
-0.00561499
0
LINE
8
BLACK
6
CONTINUOUS
10
79.6682500000000005
20
-159.7562859999999887
11
79.6682500000000005
21
-145.7635630000000049
0
LINE
8
BLACK
6
CONTINUOUS
10
207.0249999999999773
20
-120.6562489999999883
11
207.0249999999999773
21
-107.656251999999995
0
ARC
8
BLACK
10
155.4249999999999829
20
-107.6563000000000017
40
0.500000002401
50
89.99988542
51
179.99438501
0
LINE
8
BLACK
6
CONTINUOUS
10
286.3937500000000114
20
-164.3062500000000057
11
284.0125009999999861
21
-164.3062500000000057
0
ARC
8
BLACK
10
257.5500000000000114
20
-142.8652999999999906
40
0.7938
50
-90.00000000
51
90.00000000
0
ARC
8
BLACK
10
275.5811999999999671
20
-177.8061999999999898
40
0.5000500073952604
50
-89.99014611
51
-0.00985389
0
ARC
8
BLACK
10
237.4812000000000012
20
-177.8061999999999898
40
0.5000500073952604
50
-89.99014611
51
-0.00985389
0
LINE
8
BLACK
6
CONTINUOUS
10
347.0687499999999659
20
-130.8652500000000032
11
346.9317499999999654
21
-130.8652500000000032
0
LINE
8
BLACK
6
CONTINUOUS
10
315.5557499999999891
20
-140.2062499999999829
11
312.5374999999999659
21
-140.2062499999999829
0
LINE
8
BLACK
6
CONTINUOUS
10
307.8250009999999861
20
-121.15625
11
320.8249989999999912
21
-121.15625
0
LINE
8
BLACK
6
CONTINUOUS
10
348.3129999999999882
20
-88.1062500000000028
11
342.3129999999999882
21
-88.1062500000000028
0
LINE
8
BLACK
6
CONTINUOUS
10
250.6750009999999804
20
-121.15625
11
263.6749990000000139
21
-121.15625
0
ARC
8
BLACK
10
177.9499999999999886
20
-101.6062000000000012
40
0.500000002401
50
-90.00011458
51
-0.00561499
0
LINE
8
BLACK
6
CONTINUOUS
10
215.5432500000000005
20
-164.3062500000000057
11
204.1437499999999829
21
-164.3062500000000057
0
LINE
8
BLACK
6
CONTINUOUS
10
320.8249989999999912
20
-107.15625
11
307.8250009999999861
21
-107.15625
0
LINE
8
BLACK
6
CONTINUOUS
10
154.9249999999999829
20
-107.6562509999999975
11
154.9249999999999829
21
-120.6562489999999883
0
LINE
8
BLACK
6
CONTINUOUS
10
287.9875000000000114
20
-139.7062489999999855
11
287.9875000000000114
21
-126.7062509999999946
0
ARC
8
BLACK
10
69.2000000000000028
20
-178.3062999999999931
40
1.9999500000002499
50
-180.00140375
51
-90.00002865
0
LINE
8
BLACK
6
CONTINUOUS
10
217.8624999999999829
20
-103.9714999999999918
11
257.5500000000000114
21
-103.9714999999999918
0
LINE
8
BLACK
6
CONTINUOUS
10
116.8249999999999886
20
-107.6562509999999975
11
116.8249999999999886
21
-120.6562489999999883
0
ARC
8
BLACK
10
264.9624999999999773
20
-145.7562999999999818
40
0.500000002401
50
89.99988542
51
179.99438501
0
ARC
8
BLACK
10
158.9000000000000057
20
-177.8061999999999898
40
0.500000002401
50
-90.00011458
51
-0.00561499
0
ARC
8
BLACK
10
307.8249999999999886
20
-177.8061999999999898
40
0.5000500000009999
50
-179.99438501
51
-89.99988542
0
ARC
8
BLACK
10
220.8125
20
-158.7562000000000069
40
0.500000002401
50
-90.00011458
51
-0.00561499
0
LINE
8
BLACK
6
CONTINUOUS
10
96.544249999999991
20
-145.7562139999999999
11
96.544249999999991
21
-159.7630809999999997
0
ARC
8
BLACK
10
135.0875000000000057
20
-126.7061999999999955
40
0.4999500000010001
50
-0.00595876
51
90.00011460
0
LINE
8
BLACK
6
CONTINUOUS
10
118.6437499999999972
20
-105.5589999999999975
11
76.5750000000000028
21
-105.5589999999999975
0
LINE
8
BLACK
6
CONTINUOUS
10
81.1062500000000028
20
-145.7562139999999999
11
81.1062500000000028
21
-158.7630809999999997
0
ARC
8
BLACK
10
345.6374999999999886
20
-115.9152999999999878
40
0.5000000025
50
90.00000000
51
179.99427042
0
LINE
8
BLACK
6
CONTINUOUS
10
131.1124999999999829
20
-145.7562509999999918
11
131.1124999999999829
21
-158.7562489999999968
0
LINE
8
BLACK
6
CONTINUOUS
10
317.7932500000000005
20
-159.2562499999999943
11
319.7312499999999886
21
-159.2562499999999943
0
ARC
8
BLACK
10
268.6624999999999659
20
-123.8152999999999935
40
0.7938
50
-90.00000000
51
90.00000000
0
LINE
8
BLACK
6
CONTINUOUS
10
311.2933699999999817
20
-160.2562499999999943
11
317.2932859999999664
21
-160.2562499999999943
0
LINE
8
BLACK
6
CONTINUOUS
10
293.0374999999999659
20
-126.7062509999999946
11
293.0374999999999659
21
-139.7062489999999855
0
LINE
8
BLACK
6
CONTINUOUS
10
130.8249999999999886
20
-120.6562489999999883
11
130.8249999999999886
21
-107.6562509999999975
0
LINE
8
BLACK
6
CONTINUOUS
10
144.6438699999999926
20
-178.3062500000000057
11
145.9000000000000057
21
-178.3062500000000057
0
ARC
8
BLACK
10
293.5374999999999659
20
-126.7062999999999988
40
0.500000002401
50
89.99988542
51
179.99438501
0
LINE
8
BLACK
6
CONTINUOUS
10
279.2500009999999975
20
-102.1062499999999886
11
292.2499990000000025
21
-102.1062499999999886
0
ARC
8
BLACK
10
207.8125
20
-158.7562000000000069
40
0.5000500000009999
50
-179.99438501
51
-89.99988542
0
ARC
8
BLACK
10
95.8939000000000021
20
-177.8060999999999865
40
0.5001500008407478
50
-179.20032817
51
-90.00332216
0
ARC
8
BLACK
10
169.7125000000000057
20
-145.7562999999999818
40
0.500000002401
50
89.99988542
51
179.99438501
0
LINE
8
BLACK
6
CONTINUOUS
10
335.1692129999999565
20
-145.2562499999999943
11
336.3999999999999773
21
-145.2562499999999943
0
LINE
8
BLACK
6
CONTINUOUS
10
158.8999989999999798
20
-88.1062500000000028
11
145.9000010000000032
21
-88.1062500000000028
0
ARC
8
BLACK
10
144.6124999999999829
20
-158.7562000000000069
40
0.500000002401
50
-90.00011458
51
-0.00561499
0
LINE
8
BLACK
6
CONTINUOUS
10
95.8938709999999901
20
-178.3062500000000057
11
98.2749999999999915
21
-178.3062500000000057
0
ARC
8
BLACK
10
264.9624999999999773
20
-158.7562000000000069
40
0.5000500000009999
50
-179.99438501
51
-89.99988542
0
LINE
8
BLACK
6
CONTINUOUS
10
87.462498999999994
20
-164.3062500000000057
11
85.0812499999999972
21
-164.3062500000000057
0
LINE
8
BLACK
6
CONTINUOUS
10
351.8999999999999773
20
-145.2312499999999886
11
350.4000009999999747
21
-145.2312499999999886
0
LINE
8
BLACK
6
CONTINUOUS
10
168.4249989999999855
20
-107.15625
11
155.4250009999999804
21
-107.15625
0
ARC
8
BLACK
10
284.0124999999999886
20
-145.7562999999999818
40
0.500000002401
50
89.99988542
51
179.99438501
0
LINE
8
BLACK
6
CONTINUOUS
10
226.3624999999999829
20
-145.7562509999999918
11
226.3624999999999829
21
-158.7562489999999968
0
LINE
8
BLACK
6
CONTINUOUS
10
235.0999989999999968
20
-88.1062500000000028
11
222.1000009999999918
21
-88.1062500000000028
0
LINE
8
BLACK
6
CONTINUOUS
10
202.2624999999999886
20
-158.7562489999999968
11
202.2624999999999886
21
-145.7562509999999918
0
LINE
8
BLACK
6
CONTINUOUS
10
193.2375009999999804
20
-135.7062499999999829
11
197.2874989999999968
21
-135.7062499999999829
0
LINE
8
BLACK
6
CONTINUOUS
10
316.8499999999999659
20
-88.6062510000000003
11
316.8499999999999659
21
-101.6062489999999912
0
LINE
8
BLACK
6
CONTINUOUS
10
136.3750009999999975
20
-121.15625
11
149.3749990000000025
21
-121.15625
0
LINE
8
BLACK
6
CONTINUOUS
10
97.7749999999999915
20
-117.1562509999999975
11
97.7749999999999915
21
-120.6562489999999883
0
ARC
8
BLACK
10
346.9318000000000097
20
-131.3652999999999906
40
0.50005000249975
50
90.00572901
51
179.99427099
0
LINE
8
BLACK
6
CONTINUOUS
10
339.9318700000000035
20
-141.2062499999999829
11
345.9317859999999882
21
-141.2062499999999829
0
ARC
8
BLACK
10
192.2374999999999829
20
-139.7061999999999955
40
0.500000002401
50
-90.00011458
51
-0.00561499
0
LINE
8
BLACK
6
CONTINUOUS
10
341.6692499999999768
20
-159.2562499999999943
11
341.6692499999999768
21
-159.7562859999999887
0
ARC
8
BLACK
10
112.5625
20
-145.7562999999999818
40
0.500000002401
50
89.99988542
51
179.99438501
0
LINE
8
BLACK
6
CONTINUOUS
10
216.5499999999999829
20
-101.6062489999999912
11
216.5499999999999829
21
-88.6062519999999978
0
LINE
8
BLACK
6
CONTINUOUS
10
341.1692859999999996
20
-160.2562499999999943
11
335.1693699999999581
21
-160.2562499999999943
0
LINE
8
BLACK
6
CONTINUOUS
10
131.6125009999999804
20
-159.2562499999999943
11
144.6124989999999855
21
-159.2562499999999943
0
ARC
8
BLACK
10
76.5750000000000028
20
-123.8152999999999935
40
0.7937
50
-270.00000000
51
-90.00000000
0
ARC
8
BLACK
10
130.3249999999999886
20
-120.6561999999999983
40
0.500000002401
50
-90.00011458
51
-0.00561499
0
LINE
8
BLACK
6
CONTINUOUS
10
324.9370000000000118
20
-102.6062489999999912
11
324.9370000000000118
21
-102.1062499999999886
0
ARC
8
BLACK
10
98.2749999999999915
20
-107.6563000000000017
40
0.500000002401
50
89.99988542
51
179.99438501
0
LINE
8
BLACK
6
CONTINUOUS
10
102.5374999999999943
20
-126.7062509999999946
11
102.5374999999999943
21
-139.7062489999999855
0
ARC
8
BLACK
10
197.2874999999999943
20
-130.2061999999999955
40
0.500000002401
50
-90.00011458
51
-0.00561499
0
ARC
8
BLACK
10
119.7063999999999879
20
-177.8060999999999865
40
0.5001500008997301
50
-179.20044271
51
-90.00343672
0
ARC
8
BLACK
10
76.8438000000000017
20
-126.7062999999999988
40
0.5000500073952604
50
90.00985389
51
179.99014611
0
ARC
8
BLACK
10
131.6124999999999829
20
-158.7562000000000069
40
0.5000500000009999
50
-179.99438501
51
-89.99988542
0
ARC
8
BLACK
10
235.0999999999999943
20
-88.6062000000000012
40
0.4999500000010001
50
-0.00595876
51
90.00011460
0
ARC
8
BLACK
10
163.6624999999999943
20
-145.7562000000000069
40
0.4999500000010001
50
-0.00595876
51
90.00011460
0
LINE
8
BLACK
6
CONTINUOUS
10
193.0249999999999773
20
-107.6562509999999975
11
193.0249999999999773
21
-120.6562489999999883
0
LINE
8
BLACK
6
CONTINUOUS
10
331.1374999999999886
20
-164.8062510000000032
11
331.1374999999999886
21
-177.8062489999999798
0
LINE
8
BLACK
6
CONTINUOUS
10
331.1374999999999886
20
-107.6562509999999975
11
331.1374999999999886
21
-111.1562489999999883
0
ARC
8
BLACK
10
193.5249999999999773
20
-107.6563000000000017
40
0.500000002401
50
89.99988542
51
179.99438501
0
ARC
8
BLACK
10
97.0442999999999927
20
-145.7562999999999818
40
0.5000500073952604
50
90.00985389
51
179.99014611
0
ARC
8
BLACK
10
137.6937999999999818
20
-104.7652999999999963
40
0.7937000015749023
50
-269.99639104
51
-90.00360941
0
ARC
8
BLACK
10
192.2374999999999829
20
-126.7061999999999955
40
0.4999500000010001
50
-0.00595876
51
90.00011460
0
ARC
8
BLACK
10
307.8249999999999886
20
-120.6561999999999983
40
0.5000500000009999
50
-179.99438501
51
-89.99988542
0
LINE
8
BLACK
6
CONTINUOUS
10
150.6625009999999918
20
-159.2562499999999943
11
163.6624989999999968
21
-159.2562499999999943
0
LINE
8
BLACK
6
CONTINUOUS
10
337.9937499999999773
20
-139.7062860000000057
11
337.9937499999999773
21
-139.2249999999999943
0
LINE
8
BLACK
6
CONTINUOUS
10
169.7125010000000032
20
-159.2562499999999943
11
182.7124989999999798
21
-159.2562499999999943
0
CIRCLE
8
BLACK
10
91.4874999999999972
20
-171.3062500000000057
40
1.2
0
ARC
8
BLACK
10
274.4875000000000114
20
-126.7062999999999988
40
0.500000002401
50
89.99988542
51
179.99438501
0
LINE
8
BLACK
6
CONTINUOUS
10
312.0374999999999659
20
-126.7062499999999972
11
312.0374999999999659
21
-139.7062499999999829
0
LINE
8
BLACK
6
CONTINUOUS
10
112.0625
20
-145.7562509999999918
11
112.0625
21
-158.7562489999999968
0
LINE
8
BLACK
6
CONTINUOUS
10
182.7124989999999798
20
-145.2562499999999943
11
169.7125010000000032
21
-145.2562499999999943
0
ARC
8
BLACK
10
269.7249999999999659
20
-120.6561999999999983
40
0.5000500000009999
50
-179.99438501
51
-89.99988542
0
ARC
8
BLACK
10
89.843599999999995
20
-126.7064999999999912
40
0.5002500008995502
50
-0.80906367
51
89.99656397
0
ARC
8
BLACK
10
273.1999999999999886
20
-88.6062000000000012
40
0.4999500000010001
50
-0.00595876
51
90.00011460
0
LINE
8
BLACK
6
CONTINUOUS
10
137.6937499999999943
20
-143.6589999999999918
11
201.1937999999999818
21
-143.6589999999999918
0
ARC
8
BLACK
10
198.2874999999999943
20
-139.7061999999999955
40
0.5000500000009999
50
-179.99438501
51
-89.99988542
0
ARC
8
BLACK
10
182.7125000000000057
20
-158.7562000000000069
40
0.500000002401
50
-90.00011458
51
-0.00561499
0
LINE
8
BLACK
6
CONTINUOUS
10
191.7942500000000052
20
-164.3062500000000057
11
189.8562000000000012
21
-164.3062500000000057
0
ARC
8
BLACK
10
342.3129999999999882
20
-102.6062000000000012
40
0.5000500000009999
50
-179.99438501
51
-89.99988542
0
LINE
8
BLACK
6
CONTINUOUS
10
164.9500009999999861
20
-102.1062499999999886
11
177.9499989999999912
21
-102.1062499999999886
0
LINE
8
BLACK
6
CONTINUOUS
10
135.875
20
-107.6562509999999975
11
135.875
21
-120.6562489999999883
0
ARC
8
BLACK
10
154.1374999999999886
20
-126.7061999999999955
40
0.4999500000010001
50
-0.00595876
51
90.00011460
0
LINE
8
BLACK
6
CONTINUOUS
10
76.8438699999999955
20
-140.2062499999999829
11
89.8437859999999944
21
-140.2062499999999829
0
LINE
8
BLACK
6
CONTINUOUS
10
324.9370000000000118
20
-102.1062499999999886
11
326.875
21
-102.1062499999999886
0
LINE
8
BLACK
6
CONTINUOUS
10
141.1375009999999861
20
-140.2062499999999829
11
154.1374989999999912
21
-140.2062499999999829
0
ARC
8
BLACK
10
269.6999999999999886
20
-163.8062999999999931
40
0.5000500000009999
50
0.00561499
51
90.00011458
0
ARC
8
BLACK
10
324.4370000000000118
20
-102.6062000000000012
40
0.500000002401
50
-90.00011458
51
-0.00561499
0
LINE
8
BLACK
6
CONTINUOUS
10
263.6749990000000139
20
-107.15625
11
250.6750009999999804
21
-107.15625
0
LINE
8
BLACK
6
CONTINUOUS
10
155.3999989999999798
20
-163.3062500000000057
11
150.6437499999999829
21
-163.3062500000000057
0
ARC
8
BLACK
10
211.2874999999999943
20
-126.7061999999999955
40
0.4999500000010001
50
-0.00595876
51
90.00011460
0
LINE
8
BLACK
6
CONTINUOUS
10
268.9375
20
-139.7062489999999855
11
268.9375
21
-126.7062519999999921
0
LINE
8
BLACK
6
CONTINUOUS
10
255.4375009999999975
20
-140.2062499999999829
11
268.4374990000000025
21
-140.2062499999999829
0
LINE
8
BLACK
6
CONTINUOUS
10
177.9499989999999912
20
-88.1062500000000028
11
164.9500009999999861
21
-88.1062500000000028
0
LINE
8
BLACK
6
CONTINUOUS
10
310.2063699999999926
20
-159.2562499999999943
11
310.7932500000000005
21
-159.2562499999999943
0
LINE
8
BLACK
6
CONTINUOUS
10
98.2749999999999915
20
-164.3062500000000057
11
95.8937139999999886
21
-164.3062500000000057
0
ARC
8
BLACK
10
146.4249999999999829
20
-123.8152999999999935
40
0.7937
50
-270.00000000
51
-90.00000000
0
ARC
8
BLACK
10
339.9318999999999846
20
-140.7060999999999922
40
0.5001500008997301
50
-179.20032817
51
-90.00343672
0
ARC
8
BLACK
10
297.0124999999999886
20
-145.7562000000000069
40
0.4999500000010001
50
-0.00595876
51
90.00011460
0
ARC
8
BLACK
10
88.4624999999999915
20
-111.1561999999999983
40
0.5000500000009999
50
-179.99438501
51
-89.99988542
0
LINE
8
BLACK
6
CONTINUOUS
10
217.3375010000000032
20
-140.2062499999999829
11
230.3374989999999798
21
-140.2062499999999829
0
LINE
8
BLACK
6
CONTINUOUS
10
348.8129999999999882
20
-102.6062489999999912
11
348.8129999999999882
21
-102.1062499999999886
0
ARC
8
BLACK
10
307.8249999999999886
20
-164.8062999999999931
40
0.500000002401
50
89.99988542
51
179.99438501
0
ARC
8
BLACK
10
346.0186999999999671
20
-108.915300000000002
40
0.50005000249975
50
0.00572901
51
89.99427099
0
LINE
8
BLACK
6
CONTINUOUS
10
284.0125009999999861
20
-178.3062500000000057
11
286.3937500000000114
21
-178.3062500000000057
0
LINE
8
BLACK
6
CONTINUOUS
10
249.3874989999999912
20
-126.2062499999999972
11
236.3875009999999861
21
-126.2062499999999972
0
LINE
8
BLACK
6
CONTINUOUS
10
67.2000000000000028
20
-145.2312499999999886
11
67.2000000000000028
21
-178.3062510000000032
0
LINE
8
BLACK
6
CONTINUOUS
10
297.5124999999999886
20
-158.7562489999999968
11
297.5124999999999886
21
-145.7562519999999893
0
LINE
8
BLACK
6
CONTINUOUS
10
168.4183709999999792
20
-178.3062500000000057
11
174.4182859999999948
21
-178.3062500000000057
0
ARC
8
BLACK
10
125.5625
20
-158.7562000000000069
40
0.500000002401
50
-90.00011458
51
-0.00561499
0
ARC
8
BLACK
10
282.7249999999999659
20
-107.6561999999999983
40
0.4999500000010001
50
-0.00595876
51
90.00011460
0
ARC
8
BLACK
10
141.1374999999999886
20
-139.7061999999999955
40
0.5000500000009999
50
-179.99438501
51
-89.99988542
0
LINE
8
BLACK
6
CONTINUOUS
10
237.4811289999999815
20
-164.3062500000000057
11
224.4812129999999968
21
-164.3062500000000057
0
LINE
8
BLACK
6
CONTINUOUS
10
87.9624999999999915
20
-111.1562489999999883
11
87.9624999999999915
21
-107.656251999999995
0
LINE
8
BLACK
6
CONTINUOUS
10
319.7312499999999886
20
-145.2562499999999943
11
317.2932500000000005
21
-145.2562499999999943
0
LINE
8
BLACK
6
CONTINUOUS
10
212.0749999999999886
20
-107.6562509999999975
11
212.0749999999999886
21
-120.6562489999999883
0
LINE
8
BLACK
6
CONTINUOUS
10
269.6999989999999912
20
-163.3062500000000057
11
263.7000009999999861
21
-163.3062500000000057
0
ARC
8
BLACK
10
203.0499999999999829
20
-88.6062999999999903
40
0.500000002401
50
89.99988542
51
179.99438501
0
LINE
8
BLACK
6
CONTINUOUS
10
245.9125009999999918
20
-159.2562499999999943
11
258.9124989999999684
21
-159.2562499999999943
0
ARC
8
BLACK
10
81.6062999999999903
20
-145.7562999999999818
40
0.5000500073952604
50
90.00996847
51
179.99014611
0
ARC
8
BLACK
10
135.0875000000000057
20
-177.8061999999999898
40
0.500000002401
50
-90.00011458
51
-0.00561499
0
ARC
8
BLACK
10
198.2874999999999943
20
-126.7062999999999988
40
0.500000002401
50
89.99988542
51
179.99438501
0
ARC
8
BLACK
10
120.7999999999999972
20
-101.6062000000000012
40
0.500000002401
50
-90.00011458
51
-0.00561499
0
LINE
8
BLACK
6
CONTINUOUS
10
163.6624989999999968
20
-145.2562499999999943
11
150.6625009999999918
21
-145.2562499999999943
0
ARC
8
BLACK
10
79.1680999999999955
20
-145.7564999999999884
40
0.5002500008405797
50
-0.80906367
51
89.99667851
0
LINE
8
BLACK
6
CONTINUOUS
10
294.0625
20
-123.021499999999989
11
326.2312499999999886
21
-123.021499999999989
0
ARC
8
BLACK
10
88.75
20
-88.6062999999999903
40
0.500000002401
50
89.99988542
51
179.99438501
0
ARC
8
BLACK
10
297.0124999999999886
20
-158.7562000000000069
40
0.500000002401
50
-90.00011458
51
-0.00561499
0
LINE
8
BLACK
6
CONTINUOUS
10
306.5374989999999684
20
-126.2062499999999972
11
293.5375009999999634
21
-126.2062499999999972
0
LINE
8
BLACK
6
CONTINUOUS
10
345.1374999999999886
20
-116.2652499999999947
11
345.1374999999999886
21
-115.9152500000000003
0
LINE
8
BLACK
6
CONTINUOUS
10
85.0812499999999972
20
-164.3062500000000057
11
74.4624999999999915
21
-164.3062500000000057
0
LINE
8
BLACK
6
CONTINUOUS
10
276.0812500000000114
20
-177.8062860000000001
11
276.0812500000000114
21
-164.8135629999999878
0
LINE
8
BLACK
6
CONTINUOUS
10
207.3125
20
-145.7562509999999918
11
207.3125
21
-158.7562489999999968
0
LINE
8
BLACK
6
CONTINUOUS
10
88.25
20
-88.6062510000000003
11
88.25
21
-101.6062489999999912
0
LINE
8
BLACK
6
CONTINUOUS
10
282.7249989999999684
20
-107.15625
11
269.7250009999999634
21
-107.15625
0
ARC
8
BLACK
10
260.1999999999999886
20
-177.8061999999999898
40
0.5000500000009999
50
-179.99438501
51
-89.99988542
0
LINE
8
BLACK
6
CONTINUOUS
10
201.1937999999999818
20
-123.021499999999989
11
146.4249999999999829
21
-123.021499999999989
0
ARC
8
BLACK
10
288.7749999999999773
20
-107.6563000000000017
40
0.500000002401
50
89.99988542
51
179.99438501
0
ARC
8
BLACK
10
317.293200000000013
20
-159.7562000000000069
40
0.5000500073952604
50
-89.99014611
51
-0.00985389
0
LINE
8
BLACK
6
CONTINUOUS
10
239.4192499999999768
20
-163.8062139999999829
11
239.4192499999999768
21
-177.8130089999999939
0
ARC
8
BLACK
10
73.1681999999999988
20
-145.7562000000000069
40
0.4999500026012601
50
-270.00584475
51
-179.99415525
0
LINE
8
BLACK
6
CONTINUOUS
10
351.8999999999999773
20
-140.2312499999999886
11
351.8999999999999773
21
-88.1062489999999912
0
LINE
8
BLACK
6
CONTINUOUS
10
76.34375
20
-126.7062139999999886
11
76.34375
21
-139.7130809999999883
0
ARC
8
BLACK
10
179.2374999999999829
20
-139.7061999999999955
40
0.5000500000009999
50
-179.99438501
51
-89.99988542
0
LINE
8
BLACK
6
CONTINUOUS
10
336.3999999999999773
20
-102.1062499999999886
11
339.875
21
-102.1062499999999886
0
LINE
8
BLACK
6
CONTINUOUS
10
98.2750009999999889
20
-121.15625
11
111.274998999999994
21
-121.15625
0
LINE
8
BLACK
6
CONTINUOUS
10
192.2374989999999855
20
-126.2062499999999972
11
179.2375009999999804
21
-126.2062499999999972
0
LINE
8
BLACK
6
CONTINUOUS
10
223.9812499999999886
20
-164.8062139999999829
11
223.9812499999999886
21
-177.8130799999999851
0
ARC
8
BLACK
10
164.9499999999999886
20
-101.6062000000000012
40
0.5000500000009999
50
-179.99438501
51
-89.99988542
0
LINE
8
BLACK
6
CONTINUOUS
10
67.2000000000000028
20
-140.2312499999999886
11
69.9500000000000028
21
-140.2312499999999886
0
ARC
8
BLACK
10
144.6437999999999988
20
-163.8062999999999931
40
0.5000500073952604
50
90.00996847
51
179.99014611
0
ARC
8
BLACK
10
350.3999999999999773
20
-145.7313000000000045
40
0.500000002401
50
89.99988542
51
179.99438501
0
ARC
8
BLACK
10
292.25
20
-88.6062000000000012
40
0.4999500000010001
50
-0.00595876
51
90.00011460
0
ARC
8
BLACK
10
349.8999999999999773
20
-178.3062999999999931
40
2.0000000005759997
50
-89.99994270
51
0.00137510
0
LINE
8
BLACK
6
CONTINUOUS
10
257.5500000000000114
20
-143.6589999999999918
11
217.8624999999999829
21
-143.6589999999999918
0
ARC
8
BLACK
10
160.1875
20
-126.7062999999999988
40
0.500000002401
50
89.99988542
51
179.99438501
0
LINE
8
BLACK
6
CONTINUOUS
10
321.3249999999999886
20
-120.6562489999999883
11
321.3249999999999886
21
-117.1562509999999975
0
ARC
8
BLACK
10
122.0874999999999915
20
-139.7061999999999955
40
0.5000500000009999
50
-179.99438501
51
-89.99988542
0
LINE
8
BLACK
6
CONTINUOUS
10
336.3999999999999773
20
-145.2562499999999943
11
341.1692499999999768
21
-145.2562499999999943
0
LINE
8
BLACK
6
CONTINUOUS
10
145.9000010000000032
20
-102.1062499999999886
11
158.8999989999999798
21
-102.1062499999999886
0
ARC
8
BLACK
10
239.8624999999999829
20
-158.7562000000000069
40
0.500000002401
50
-90.00011458
51
-0.00561499
0
LINE
8
BLACK
6
CONTINUOUS
10
273.6999999999999886
20
-101.6062489999999912
11
273.6999999999999886
21
-88.6062519999999978
0
ARC
8
BLACK
10
239.8624999999999829
20
-145.7562999999999818
40
0.5000500000009999
50
0.00561499
51
90.00011458
0
ARC
8
BLACK
10
312.5375999999999976
20
-126.7062999999999988
40
0.5001000024995
50
90.01145801
51
179.99427157
0
LINE
8
BLACK
6
CONTINUOUS
10
237.9812499999999886
20
-177.8062860000000001
11
237.9812499999999886
21
-164.8135629999999878
0
LINE
8
BLACK
6
CONTINUOUS
10
111.7749999999999915
20
-120.6562489999999883
11
111.7749999999999915
21
-107.656251999999995
0
LINE
8
BLACK
6
CONTINUOUS
10
349.1499999999999773
20
-140.2312499999999886
11
351.8999999999999773
21
-140.2312499999999886
0
ARC
8
BLACK
10
349.3999999999999773
20
-88.6062999999999903
40
0.5000500000009999
50
0.00561499
51
90.00011458
0
ARC
8
BLACK
10
192.2942999999999927
20
-163.8062999999999931
40
0.5000500073952604
50
90.00996847
51
179.99014611
0
CIRCLE
8
BLACK
10
71.4375
20
-105.1312499999999943
40
1.2
0
LINE
8
BLACK
6
CONTINUOUS
10
132.7062499999999829
20
-164.3062500000000057
11
122.0874999999999915
21
-164.3062500000000057
0
LINE
8
BLACK
6
CONTINUOUS
10
259.6999999999999886
20
-174.3062520000000006
11
259.6999999999999886
21
-177.8062489999999798
0
LINE
8
BLACK
6
CONTINUOUS
10
73.1682509999999979
20
-160.2562499999999943
11
79.1682869999999923
21
-160.2562499999999943
0
ARC
8
BLACK
10
301.7749999999999773
20
-120.6561999999999983
40
0.500000002401
50
-90.00011458
51
-0.00561499
0
ARC
8
BLACK
10
249.3874999999999886
20
-139.7061999999999955
40
0.500000002401
50
-90.00011458
51
-0.00561499
0
ARC
8
BLACK
10
288.7749999999999773
20
-120.6561999999999983
40
0.5000500000009999
50
-179.99438501
51
-89.99988542
0
ARC
8
BLACK
10
225.5749999999999886
20
-120.6561999999999983
40
0.500000002401
50
-90.00011458
51
-0.00561499
0
LINE
8
BLACK
6
CONTINUOUS
10
231.125
20
-107.6562509999999975
11
231.125
21
-120.6562489999999883
0
ARC
8
BLACK
10
137.6937999999999818
20
-142.8652999999999906
40
0.7937000015749023
50
-269.99639104
51
-90.00360941
0
LINE
8
BLACK
6
CONTINUOUS
10
322.5557499999999891
20
-140.2062499999999829
11
337.4937860000000001
21
-140.2062499999999829
0
ARC
8
BLACK
10
187.4749999999999943
20
-120.6561999999999983
40
0.500000002401
50
-90.00011458
51
-0.00561499
0
LINE
8
BLACK
6
CONTINUOUS
10
330.3499999999999659
20
-102.1062499999999886
11
336.3999999999999773
21
-102.1062499999999886
0
ARC
8
BLACK
10
217.8624999999999829
20
-142.8652999999999906
40
0.7937
50
-270.00000000
51
-90.00000000
0
LINE
8
BLACK
6
CONTINUOUS
10
94.6061299999999932
20
-145.2562499999999943
11
81.6062129999999968
21
-145.2562499999999943
0
ARC
8
BLACK
10
255.4375
20
-126.7062999999999988
40
0.500000002401
50
89.99988542
51
179.99438501
0
LINE
8
BLACK
6
CONTINUOUS
10
88.4625009999999889
20
-116.65625
11
97.274998999999994
21
-116.65625
0
LINE
8
BLACK
6
CONTINUOUS
10
76.5750000000000028
20
-123.021499999999989
11
118.6437499999999972
21
-123.021499999999989
0
LINE
8
BLACK
6
CONTINUOUS
10
275.5811289999999758
20
-164.3062500000000057
11
273.1999999999999886
21
-164.3062500000000057
0
LINE
8
BLACK
6
CONTINUOUS
10
118.6437499999999972
20
-143.6589999999999918
11
76.5750000000000028
21
-143.6589999999999918
0
ARC
8
BLACK
10
349.1499999999999773
20
-142.7312000000000012
40
2.5000000004801999
50
-270.00000000
51
-179.99887700
0
ARC
8
BLACK
10
103.0374999999999943
20
-126.7062999999999988
40
0.500000002401
50
89.99988542
51
179.99438501
0
ARC
8
BLACK
10
312.5374999999999659
20
-139.7062999999999988
40
0.4999499999999999
50
-180.00572958
51
-90.00000000
0
ARC
8
BLACK
10
69.9500000000000028
20
-142.7312499999999886
40
2.5
50
-90.00000000
51
90.00000000
0
LINE
8
BLACK
6
CONTINUOUS
10
334.0187500000000114
20
-164.3062500000000057
11
331.6375009999999861
21
-164.3062500000000057
0
ARC
8
BLACK
10
203.0499999999999829
20
-101.6062000000000012
40
0.5000500000009999
50
-179.99438501
51
-89.99988542
0
ARC
8
BLACK
10
158.9000000000000057
20
-164.8061999999999898
40
0.4999500000010001
50
-0.00595876
51
90.00011460
0
LINE
8
BLACK
6
CONTINUOUS
10
292.75
20
-101.6062489999999912
11
292.75
21
-88.6062519999999978
0
LINE
8
BLACK
6
CONTINUOUS
10
240.6499999999999773
20
-88.6062510000000003
11
240.6499999999999773
21
-101.6062489999999912
0
ARC
8
BLACK
10
245.9124999999999943
20
-158.7562000000000069
40
0.5000500000009999
50
-179.99438501
51
-89.99988542
0
LINE
8
BLACK
6
CONTINUOUS
10
307.3249999999999886
20
-107.6562509999999975
11
307.3249999999999886
21
-120.6562489999999883
0
LINE
8
BLACK
6
CONTINUOUS
10
95.1062499999999886
20
-158.7562859999999887
11
95.1062499999999886
21
-145.7635630000000049
0
LINE
8
BLACK
6
CONTINUOUS
10
102.25
20
-101.6062489999999912
11
102.25
21
-88.6062519999999978
0
LINE
8
BLACK
6
CONTINUOUS
10
323.2062500000000114
20
-145.2562499999999943
11
319.7312499999999886
21
-145.2562499999999943
0
LINE
8
BLACK
6
CONTINUOUS
10
90.34375
20
-139.7062860000000057
11
90.34375
21
-126.7135629999999935
0
ARC
8
BLACK
10
307.8249999999999886
20
-107.6563000000000017
40
0.500000002401
50
89.99988542
51
179.99438501
0
ARC
8
BLACK
10
237.4810999999999979
20
-164.8064999999999998
40
0.5002500008405797
50
-0.80906367
51
89.99667851
0
LINE
8
BLACK
6
CONTINUOUS
10
116.0374989999999968
20
-126.2062499999999972
11
103.0375009999999918
21
-126.2062499999999972
0
ARC
8
BLACK
10
259.1999999999999886
20
-168.3061999999999898
40
0.500000002401
50
-90.00011458
51
-0.00561499
0
LINE
8
BLACK
6
CONTINUOUS
10
342.3130009999999857
20
-103.1062499999999886
11
348.3129989999999907
21
-103.1062499999999886
0
LINE
8
BLACK
6
CONTINUOUS
10
315.5557499999999891
20
-140.2062499999999829
11
315.5557499999999891
21
-140.7130809999999883
0
LINE
8
BLACK
6
CONTINUOUS
10
101.7499989999999883
20
-88.1062500000000028
11
88.7500009999999975
21
-88.1062500000000028
0
ARC
8
BLACK
10
235.0999999999999943
20
-101.6062000000000012
40
0.500000002401
50
-90.00011458
51
-0.00561499
0
LINE
8
BLACK
6
CONTINUOUS
10
273.1999989999999912
20
-88.1062500000000028
11
260.2000009999999861
21
-88.1062500000000028
0
LINE
8
BLACK
6
CONTINUOUS
10
346.0187500000000114
20
-108.4152500000000003
11
345.6374999999999886
21
-108.4152500000000003
0
LINE
8
BLACK
6
CONTINUOUS
10
150.1624999999999943
20
-145.7562509999999918
11
150.1624999999999943
21
-158.7562489999999968
0
LINE
8
BLACK
6
CONTINUOUS
10
349.8999999999999773
20
-86.1062500000000028
11
69.1999989999999912
21
-86.1062500000000028
0
ARC
8
BLACK
10
122.0874999999999915
20
-126.7062999999999988
40
0.500000002401
50
89.99988542
51
179.99438501
0
ARC
8
BLACK
10
326.2312999999999761
20
-123.8152999999999935
40
0.7938000015747039
50
-90.00360941
51
90.00360896
0
ARC
8
BLACK
10
236.3874999999999886
20
-139.7061999999999955
40
0.5000500000009999
50
-179.99438501
51
-89.99988542
0
ARC
8
BLACK
10
268.4375
20
-139.7061999999999955
40
0.500000002401
50
-90.00011458
51
-0.00561499
0
ARC
8
BLACK
10
87.4624999999999915
20
-120.6561999999999983
40
0.500000002401
50
-90.00011458
51
-0.00561499
0
ARC
8
BLACK
10
211.2874999999999943
20
-139.7061999999999955
40
0.500000002401
50
-90.00011458
51
-0.00561499
0
LINE
8
BLACK
6
CONTINUOUS
10
259.6999999999999886
20
-88.6062510000000003
11
259.6999999999999886
21
-101.6062489999999912
0
LINE
8
BLACK
6
CONTINUOUS
10
201.7624989999999912
20
-145.2562499999999943
11
188.7625009999999861
21
-145.2562499999999943
0
LINE
8
BLACK
6
CONTINUOUS
10
268.6624999999999659
20
-124.6089999999999947
11
217.8624999999999829
21
-124.6089999999999947
0
LINE
8
BLACK
6
CONTINUOUS
10
191.7942500000000052
20
-163.8062139999999829
11
191.7942500000000052
21
-164.3062500000000057
0
LINE
8
BLACK
6
CONTINUOUS
10
251.6437509999999804
20
-173.8062500000000057
11
259.1999989999999912
21
-173.8062500000000057
0
ARC
8
BLACK
10
126.8499999999999943
20
-101.6062000000000012
40
0.5000500000009999
50
-179.99438501
51
-89.99988542
0
ARC
8
BLACK
10
168.4183999999999912
20
-177.8060999999999865
40
0.5001500008407478
50
-179.20032817
51
-90.00332216
0
ARC
8
BLACK
10
317.3499999999999659
20
-88.6062999999999903
40
0.500000002401
50
89.99988542
51
179.99438501
0
LINE
8
BLACK
6
CONTINUOUS
10
264.4624999999999773
20
-145.7562509999999918
11
264.4624999999999773
21
-158.7562489999999968
0
LINE
8
BLACK
6
CONTINUOUS
10
85.0812499999999972
20
-178.3062500000000057
11
87.462498999999994
21
-178.3062500000000057
0
LINE
8
BLACK
6
CONTINUOUS
10
155.4000000000000057
20
-178.3062500000000057
11
158.8999989999999798
21
-178.3062500000000057
0
LINE
8
BLACK
6
CONTINUOUS
10
293.5375009999999634
20
-140.2062499999999829
11
306.5374989999999684
21
-140.2062499999999829
0
LINE
8
BLACK
6
CONTINUOUS
10
174.9182500000000005
20
-177.8062860000000001
11
174.9182500000000005
21
-163.8135629999999878
0
LINE
8
BLACK
6
CONTINUOUS
10
207.8125009999999975
20
-159.2562499999999943
11
220.8124990000000025
21
-159.2562499999999943
0
ARC
8
BLACK
10
241.1499999999999773
20
-101.6062000000000012
40
0.5000500000009999
50
-179.99438501
51
-89.99988542
0
LINE
8
BLACK
6
CONTINUOUS
10
226.0749999999999886
20
-120.6562489999999883
11
226.0749999999999886
21
-107.656251999999995
0
ARC
8
BLACK
10
321.8249999999999886
20
-111.1561999999999983
40
0.5000500000009999
50
-179.99438501
51
-89.99988542
0
LINE
8
BLACK
6
CONTINUOUS
10
198.2941299999999956
20
-163.3062500000000057
11
192.294212999999985
21
-163.3062500000000057
0
ARC
8
BLACK
10
184.
20
-88.6062999999999903
40
0.500000002401
50
89.99988542
51
179.99438501
0
ARC
8
BLACK
10
74.4624999999999915
20
-120.6561999999999983
40
0.5000500000009999
50
-179.99438501
51
-89.99988542
0
LINE
8
BLACK
6
CONTINUOUS
10
69.7000010000000003
20
-102.1062499999999886
11
82.6999989999999912
21
-102.1062499999999886
0
ARC
8
BLACK
10
179.2374999999999829
20
-126.7062999999999988
40
0.500000002401
50
89.99988542
51
179.99438501
0
LINE
8
BLACK
6
CONTINUOUS
10
236.3875009999999861
20
-140.2062499999999829
11
249.3874989999999912
21
-140.2062499999999829
0
LINE
8
BLACK
6
CONTINUOUS
10
222.1000009999999918
20
-102.1062499999999886
11
235.0999989999999968
21
-102.1062499999999886
0
LINE
8
BLACK
6
CONTINUOUS
10
89.8436299999999903
20
-126.2062499999999972
11
76.8437139999999914
21
-126.2062499999999972
0
ARC
8
BLACK
10
173.1875
20
-126.7061999999999955
40
0.4999500000010001
50
-0.00595876
51
90.00011460
0
LINE
8
BLACK
6
CONTINUOUS
10
74.4624999999999915
20
-178.3062500000000057
11
85.0812499999999972
21
-178.3062500000000057
0
LINE
8
BLACK
6
CONTINUOUS
10
310.2062500000000114
20
-164.3062500000000057
11
307.8250009999999861
21
-164.3062500000000057
0
LINE
8
BLACK
6
CONTINUOUS
10
318.4370000000000118
20
-88.1062500000000028
11
317.3500009999999634
21
-88.1062500000000028
0
LINE
8
BLACK
6
CONTINUOUS
10
270.25
20
-142.0714999999999861
11
309.9375
21
-142.0714999999999861
0
LINE
8
BLACK
6
CONTINUOUS
10
203.0499999999999829
20
-178.3062500000000057
11
204.1437499999999829
21
-178.3062500000000057
0
ARC
8
BLACK
10
145.9000000000000057
20
-101.6062000000000012
40
0.5000500000009999
50
-179.99438501
51
-89.99988542
0
LINE
8
BLACK
6
CONTINUOUS
10
278.75
20
-88.6062510000000003
11
278.75
21
-101.6062489999999912
0
LINE
8
BLACK
6
CONTINUOUS
10
121.2999999999999972
20
-101.6062489999999912
11
121.2999999999999972
21
-88.6062510000000003
0
LINE
8
BLACK
6
CONTINUOUS
10
74.4625010000000032
20
-121.15625
11
87.462498999999994
21
-121.15625
0
LINE
8
BLACK
6
CONTINUOUS
10
145.9000000000000057
20
-178.3062500000000057
11
149.4000000000000057
21
-178.3062500000000057
0
CIRCLE
8
BLACK
10
162.9249999999999829
20
-171.3062500000000057
40
1.2
0
LINE
8
BLACK
6
CONTINUOUS
10
196.9999990000000025
20
-88.1062500000000028
11
184.0000009999999975
21
-88.1062500000000028
0
LINE
8
BLACK
6
CONTINUOUS
10
331.6375009999999861
20
-121.15625
11
332.96875
21
-121.15625
0
ARC
8
BLACK
10
349.3999999999999773
20
-101.6062000000000012
40
0.500000002401
50
-90.00011458
51
-0.00561499
0
LINE
8
BLACK
6
CONTINUOUS
10
140.3499999999999943
20
-101.6062489999999912
11
140.3499999999999943
21
-88.6062510000000003
0
ARC
8
BLACK
10
306.5374999999999659
20
-126.7061999999999955
40
0.4999500000010001
50
-0.00595876
51
90.00011460
0
LINE
8
BLACK
6
CONTINUOUS
10
251.1437499999999829
20
-168.2992529999999931
11
251.1435999999999922
21
-163.8062339999999892
0
LINE
8
BLACK
6
CONTINUOUS
10
339.875
20
-102.1062499999999886
11
341.8129999999999882
21
-102.1062499999999886
0
ARC
8
BLACK
10
174.4749999999999943
20
-120.6561999999999983
40
0.5000500000009999
50
-179.99438501
51
-89.99988542
0
ARC
8
BLACK
10
258.9124999999999659
20
-158.7562000000000069
40
0.500000002401
50
-90.00011458
51
-0.00561499
0
ARC
8
BLACK
10
230.3374999999999773
20
-139.7061999999999955
40
0.500000002401
50
-90.00011458
51
-0.00561499
0
ARC
8
BLACK
10
73.1683000000000021
20
-159.7562000000000069
40
0.5000500024007599
50
-179.99438558
51
-90.00561442
0
ARC
8
BLACK
10
131.6124999999999829
20
-145.7562999999999818
40
0.500000002401
50
89.99988542
51
179.99438501
0
ARC
8
BLACK
10
206.5249999999999773
20
-120.6561999999999983
40
0.500000002401
50
-90.00011458
51
-0.00561499
0
LINE
8
BLACK
6
CONTINUOUS
10
159.4000000000000057
20
-101.6062489999999912
11
159.4000000000000057
21
-88.6062519999999978
0
LINE
8
BLACK
6
CONTINUOUS
10
119.7063699999999926
20
-178.3062500000000057
11
122.0874999999999915
21
-178.3062500000000057
0
LINE
8
BLACK
6
CONTINUOUS
10
283.5124999999999886
20
-164.8062510000000032
11
283.5124999999999886
21
-177.8062489999999798
0
LINE
8
BLACK
6
CONTINUOUS
10
222.0431299999999908
20
-163.3062500000000057
11
216.0432129999999802
21
-163.3062500000000057
0
LINE
8
BLACK
6
CONTINUOUS
10
187.9749999999999943
20
-120.6562489999999883
11
187.9749999999999943
21
-107.6562509999999975
0
LINE
8
BLACK
6
CONTINUOUS
10
73.9624999999999915
20
-107.6562509999999975
11
73.9624999999999915
21
-120.6562489999999883
0
ARC
8
BLACK
10
331.6374999999999886
20
-164.8062999999999931
40
0.500000002401
50
89.99988542
51
179.99438501
0
LINE
8
BLACK
6
CONTINUOUS
10
72.0812509999999946
20
-178.3062500000000057
11
74.4624999999999915
21
-178.3062500000000057
0
ARC
8
BLACK
10
69.2000000000000028
20
-88.1062500000000028
40
2.00000000000025
50
90.00002865
51
179.99997135
0
LINE
8
BLACK
6
CONTINUOUS
10
320.8249999999999886
20
-164.3062500000000057
11
310.2062500000000114
21
-164.3062500000000057
0
LINE
8
BLACK
6
CONTINUOUS
10
145.1124999999999829
20
-158.7562489999999968
11
145.1124999999999829
21
-145.7562509999999918
0
ARC
8
BLACK
10
88.75
20
-101.6062000000000012
40
0.5000500000009999
50
-179.99438501
51
-89.99988542
0
LINE
8
BLACK
6
CONTINUOUS
10
201.1937999999999818
20
-103.9714999999999918
11
137.6937499999999943
21
-103.9714999999999918
0
ARC
8
BLACK
10
87.4624999999999915
20
-164.8062999999999931
40
0.5000500000009999
50
0.00561499
51
90.00011458
0
LINE
8
BLACK
6
CONTINUOUS
10
122.0875009999999889
20
-140.2062499999999829
11
135.0874989999999798
21
-140.2062499999999829
0
LINE
8
BLACK
6
CONTINUOUS
10
317.7932500000000005
20
-159.7562859999999887
11
317.7932500000000005
21
-159.2562499999999943
0
LINE
8
BLACK
6
CONTINUOUS
10
126.0625
20
-158.7562489999999968
11
126.0625
21
-145.7562509999999918
0
ARC
8
BLACK
10
345.6374999999999886
20
-116.265199999999993
40
0.50005
50
-179.99427042
51
-90.00000000
0
ARC
8
BLACK
10
282.7249999999999659
20
-120.6561999999999983
40
0.500000002401
50
-90.00011458
51
-0.00561499
0
ARC
8
BLACK
10
117.3249999999999886
20
-107.6563000000000017
40
0.500000002401
50
89.99988542
51
179.99438501
0
LINE
8
BLACK
6
CONTINUOUS
10
82.6999989999999912
20
-88.1062500000000028
11
69.7000010000000003
21
-88.1062500000000028
0
LINE
8
BLACK
6
CONTINUOUS
10
176.8563699999999983
20
-178.3062500000000057
11
192.2942500000000052
21
-178.3062500000000057
0
ARC
8
BLACK
10
330.6374999999999886
20
-111.1561999999999983
40
0.500000002401
50
-90.00011458
51
-0.00561499
0
ARC
8
BLACK
10
275.5810999999999922
20
-164.8064999999999998
40
0.5002500008405797
50
-0.80906367
51
89.99667851
0
ARC
8
BLACK
10
269.7249999999999659
20
-107.6563000000000017
40
0.500000002401
50
89.99988542
51
179.99438501
0
ARC
8
BLACK
10
76.5750000000000028
20
-104.7652999999999963
40
0.7937
50
-270.00000000
51
-90.00000000
0
ARC
8
BLACK
10
130.3249999999999886
20
-107.6563000000000017
40
0.5000500000009999
50
0.00561499
51
90.00011458
0
LINE
8
BLACK
6
CONTINUOUS
10
204.1437499999999829
20
-178.3062500000000057
11
216.0432500000000005
21
-178.3062500000000057
0
LINE
8
BLACK
6
CONTINUOUS
10
116.5374999999999943
20
-139.7062489999999855
11
116.5374999999999943
21
-126.7062509999999946
0
LINE
8
BLACK
6
CONTINUOUS
10
173.9749999999999943
20
-107.6562509999999975
11
173.9749999999999943
21
-120.6562489999999883
0
LINE
8
BLACK
6
CONTINUOUS
10
349.3999989999999798
20
-159.2562499999999943
11
341.6692499999999768
21
-159.2562499999999943
0
LINE
8
BLACK
6
CONTINUOUS
10
167.9182500000000005
20
-163.8062139999999829
11
167.9182500000000005
21
-177.8130809999999826
0
LINE
8
BLACK
6
CONTINUOUS
10
342.3129999999999882
20
-88.1062500000000028
11
339.875
21
-88.1062500000000028
0
ARC
8
BLACK
10
344.6374999999999886
20
-107.6561999999999983
40
0.4999500000010001
50
-0.00595876
51
90.00011460
0
LINE
8
BLACK
6
CONTINUOUS
10
67.2000000000000028
20
-88.1062489999999912
11
67.2000000000000028
21
-140.2312499999999886
0
LINE
8
BLACK
6
CONTINUOUS
10
317.2932500000000005
20
-145.2562499999999943
11
311.2932500000000005
21
-145.2562499999999943
0
LINE
8
BLACK
6
CONTINUOUS
10
144.1437499999999829
20
-163.8062139999999829
11
144.1437499999999829
21
-177.8130809999999826
0
LINE
8
BLACK
6
CONTINUOUS
10
174.4750009999999918
20
-121.15625
11
187.4749989999999968
21
-121.15625
0
ARC
8
BLACK
10
193.2374999999999829
20
-136.2062999999999988
40
0.500000002401
50
89.99988542
51
179.99438501
0
ARC
8
BLACK
10
347.0186999999999671
20
-177.8061999999999898
40
0.5000500073952604
50
-89.99014611
51
-0.00985389
0
LINE
8
BLACK
6
CONTINUOUS
10
122.0874999999999915
20
-164.3062500000000057
11
119.7062129999999911
21
-164.3062500000000057
0
LINE
8
BLACK
6
CONTINUOUS
10
235.5999999999999943
20
-101.6062489999999912
11
235.5999999999999943
21
-88.6062519999999978
0
ARC
8
BLACK
10
182.7125000000000057
20
-145.7562000000000069
40
0.4999500000010001
50
-0.00595876
51
90.00011460
0
ARC
8
BLACK
10
82.7000000000000028
20
-101.6062000000000012
40
0.500000002401
50
-90.00011458
51
-0.00561499
0
ARC
8
BLACK
10
292.25
20
-101.6062000000000012
40
0.500000002401
50
-90.00011458
51
-0.00561499
0
ARC
8
BLACK
10
347.0185999999999922
20
-164.8064999999999998
40
0.5002500008405797
50
-0.80906367
51
89.99667851
0
LINE
8
BLACK
6
CONTINUOUS
10
183.5
20
-88.6062510000000003
11
183.5
21
-101.6062489999999912
0
ARC
8
BLACK
10
103.0374999999999943
20
-139.7061999999999955
40
0.5000500000009999
50
-179.99438501
51
-89.99988542
0
LINE
8
BLACK
6
CONTINUOUS
10
299.8937500000000114
20
-177.8062860000000001
11
299.8937500000000114
21
-164.8135629999999878
0
LINE
8
BLACK
6
CONTINUOUS
10
332.96875
20
-126.2062499999999972
11
312.5374999999999659
21
-126.2062499999999972
0
LINE
8
BLACK
6
CONTINUOUS
10
337.9937499999999773
20
-139.2249999999999943
11
339.4317499999999654
21
-139.2249999999999943
0
ARC
8
BLACK
10
149.375
20
-107.6561999999999983
40
0.4999500000010001
50
-0.00595876
51
90.00011460
0
LINE
8
BLACK
6
CONTINUOUS
10
264.1750000000000114
20
-120.6562489999999883
11
264.1750000000000114
21
-107.656251999999995
0
LINE
8
BLACK
6
CONTINUOUS
10
74.4624999999999915
20
-164.3062500000000057
11
72.0812509999999946
21
-164.3062500000000057
0
LINE
8
BLACK
6
CONTINUOUS
10
97.274998999999994
20
-111.65625
11
88.4625009999999889
21
-111.65625
0
ARC
8
BLACK
10
168.4182999999999879
20
-163.8062999999999931
40
0.5000500073952604
50
90.00985389
51
179.99014611
0
ARC
8
BLACK
10
118.6437999999999988
20
-104.765199999999993
40
0.7937000015749023
50
-90.00360896
51
90.00360941
0
ARC
8
BLACK
10
201.1937999999999818
20
-142.8652999999999906
40
0.7938000015747039
50
-90.00360941
51
90.00360896
0
LINE
8
BLACK
6
CONTINUOUS
10
297.0124999999999886
20
-178.3062500000000057
11
299.3937859999999773
21
-178.3062500000000057
0
ARC
8
BLACK
10
168.4249999999999829
20
-107.6563000000000017
40
0.5000500000009999
50
0.00561499
51
90.00011458
0
LINE
8
BLACK
6
CONTINUOUS
10
240.3624999999999829
20
-158.7562489999999968
11
240.3624999999999829
21
-145.7562509999999918
0
LINE
8
BLACK
6
CONTINUOUS
10
298.3000010000000088
20
-102.1062499999999886
11
311.2999990000000139
21
-102.1062499999999886
0
LINE
8
BLACK
6
CONTINUOUS
10
346.5187489999999571
20
-114.9152500000000003
11
346.5187489999999571
21
-108.9152500000000003
0
ARC
8
BLACK
10
299.3935999999999922
20
-164.8064999999999998
40
0.5002500008405797
50
-0.80906367
51
89.99667851
0
LINE
8
BLACK
6
CONTINUOUS
10
326.2312499999999886
20
-124.6089999999999947
11
294.0625
21
-124.6089999999999947
0
LINE
8
BLACK
6
CONTINUOUS
10
125.5624989999999883
20
-145.2562499999999943
11
112.5625009999999975
21
-145.2562499999999943
0
LINE
8
BLACK
6
CONTINUOUS
10
87.9624999999999915
20
-177.8062489999999798
11
87.9624999999999915
21
-164.8062510000000032
0
LINE
8
BLACK
6
CONTINUOUS
10
235.8874999999999886
20
-126.7062509999999946
11
235.8874999999999886
21
-139.7062489999999855
0
LINE
8
BLACK
6
CONTINUOUS
10
250.6435989999999947
20
-163.3062500000000057
11
245.9192499999999768
21
-163.3062500000000057
0
LINE
8
BLACK
6
CONTINUOUS
10
139.8499989999999968
20
-88.1062500000000028
11
126.8500009999999918
21
-88.1062500000000028
0
ARC
8
BLACK
10
120.7999999999999972
20
-88.6062999999999903
40
0.5000500000009999
50
0.00561499
51
90.00011458
0
ARC
8
BLACK
10
250.6749999999999829
20
-120.6561999999999983
40
0.5000500000009999
50
-179.99438501
51
-89.99988542
0
LINE
8
BLACK
6
CONTINUOUS
10
257.5500000000000114
20
-105.5589999999999975
11
217.8624999999999829
21
-105.5589999999999975
0
ARC
8
BLACK
10
207.8125
20
-145.7562999999999818
40
0.500000002401
50
89.99988542
51
179.99438501
0
LINE
8
BLACK
6
CONTINUOUS
10
230.3374989999999798
20
-126.2062499999999972
11
217.3375010000000032
21
-126.2062499999999972
0
LINE
8
BLACK
6
CONTINUOUS
10
159.4000000000000057
20
-177.8062489999999798
11
159.4000000000000057
21
-164.8062520000000006
0
LINE
8
BLACK
6
CONTINUOUS
10
176.3562499999999886
20
-164.8062139999999829
11
176.3562499999999886
21
-177.8130799999999851
0
LINE
8
BLACK
6
CONTINUOUS
10
286.3937500000000114
20
-178.3062500000000057
11
297.0124999999999886
21
-178.3062500000000057
0
LINE
8
BLACK
6
CONTINUOUS
10
299.3936289999999758
20
-164.3062500000000057
11
297.0124999999999886
21
-164.3062500000000057
0
LINE
8
BLACK
6
CONTINUOUS
10
349.3999989999999798
20
-88.1062500000000028
11
348.3129999999999882
21
-88.1062500000000028
0
ARC
8
BLACK
10
155.4000000000000057
20
-163.8061999999999898
40
0.4999500000010001
50
-0.00595876
51
90.00011460
0
LINE
8
BLACK
6
CONTINUOUS
10
81.6063709999999958
20
-159.2562499999999943
11
94.6062859999999972
21
-159.2562499999999943
0
CIRCLE
8
BLACK
10
133.3499999999999943
20
-123.1812499999999915
40
1.2
0
LINE
8
BLACK
6
CONTINUOUS
10
188.7625009999999861
20
-159.2562499999999943
11
201.7624989999999912
21
-159.2562499999999943
0
LINE
8
BLACK
6
CONTINUOUS
10
119.2062499999999972
20
-164.8062139999999829
11
119.2062499999999972
21
-177.8130799999999851
0
ARC
8
BLACK
10
158.9000000000000057
20
-101.6062000000000012
40
0.500000002401
50
-90.00011458
51
-0.00561499
0
LINE
8
BLACK
6
CONTINUOUS
10
174.4181289999999933
20
-163.3062500000000057
11
168.4182140000000061
21
-163.3062500000000057
0
LINE
8
BLACK
6
CONTINUOUS
10
225.5749989999999912
20
-107.15625
11
212.5750009999999861
21
-107.15625
0
ARC
8
BLACK
10
111.2749999999999915
20
-177.8061999999999898
40
0.500000002401
50
-90.00011458
51
-0.00561499
0
ARC
8
BLACK
10
310.2063999999999737
20
-158.7561000000000035
40
0.5001500008997301
50
-179.20044271
51
-90.00343672
0
LINE
8
BLACK
6
CONTINUOUS
10
348.8129999999999882
20
-102.1062499999999886
11
349.3999989999999798
21
-102.1062499999999886
0
ARC
8
BLACK
10
72.0811999999999955
20
-164.8061999999999898
40
0.4999500026012601
50
-270.00584475
51
-179.99415525
0
ARC
8
BLACK
10
287.4875000000000114
20
-139.7061999999999955
40
0.500000002401
50
-90.00011458
51
-0.00561499
0
ARC
8
BLACK
10
263.6999999999999886
20
-163.8062999999999931
40
0.500000002401
50
89.99988542
51
179.99438501
0
LINE
8
BLACK
6
CONTINUOUS
10
311.8000000000000114
20
-101.6062489999999912
11
311.8000000000000114
21
-88.6062519999999978
0
ARC
8
BLACK
10
250.6749999999999829
20
-107.6563000000000017
40
0.500000002401
50
89.99988542
51
179.99438501
0
ARC
8
BLACK
10
158.9000000000000057
20
-88.6062000000000012
40
0.4999500000010001
50
-0.00595876
51
90.00011460
0
ARC
8
BLACK
10
184.
20
-101.6062000000000012
40
0.5000500000009999
50
-179.99438501
51
-89.99988542
0
ARC
8
BLACK
10
136.375
20
-107.6563000000000017
40
0.500000002401
50
89.99988542
51
179.99438501
0
LINE
8
BLACK
6
CONTINUOUS
10
184.0000009999999975
20
-102.1062499999999886
11
196.9999990000000025
21
-102.1062499999999886
0
ARC
8
BLACK
10
270.25
20
-142.8652999999999906
40
0.7937
50
-270.00000000
51
-90.00000000
0
LINE
8
BLACK
6
CONTINUOUS
10
140.6374999999999886
20
-126.7062509999999946
11
140.6374999999999886
21
-139.7062489999999855
0
LINE
8
BLACK
6
CONTINUOUS
10
149.875
20
-120.6562489999999883
11
149.875
21
-107.656251999999995
0
LINE
8
BLACK
6
CONTINUOUS
10
164.1624999999999943
20
-158.7562489999999968
11
164.1624999999999943
21
-145.7562519999999893
0
ARC
8
BLACK
10
150.6624999999999943
20
-145.7562999999999818
40
0.500000002401
50
89.99988542
51
179.99438501
0
ARC
8
BLACK
10
118.6437999999999988
20
-123.8151999999999902
40
0.7937000015749023
50
-90.00360896
51
90.00360941
0
LINE
8
BLACK
6
CONTINUOUS
10
168.9249999999999829
20
-120.6562489999999883
11
168.9249999999999829
21
-107.6562509999999975
0
ARC
8
BLACK
10
258.9124999999999659
20
-145.7562000000000069
40
0.4999500000010001
50
-0.00595876
51
90.00011460
0
ARC
8
BLACK
10
217.8624999999999829
20
-104.7652999999999963
40
0.7937
50
-270.00000000
51
-90.00000000
0
LINE
8
BLACK
6
CONTINUOUS
10
269.2249999999999659
20
-107.6562509999999975
11
269.2249999999999659
21
-120.6562489999999883
0
LINE
8
BLACK
6
CONTINUOUS
10
323.2062500000000114
20
-159.2562499999999943
11
332.7312860000000114
21
-159.2562499999999943
0
ARC
8
BLACK
10
330.6374999999999886
20
-117.1563000000000017
40
0.5000500000009999
50
0.00561499
51
90.00011458
0
LINE
8
BLACK
6
CONTINUOUS
10
305.96875
20
-162.7090000000000032
11
278.9812499999999886
21
-162.7090000000000032
0
LINE
8
BLACK
6
CONTINUOUS
10
351.8999999999999773
20
-178.3062520000000006
11
351.8999999999999773
21
-145.2312499999999886
0
LINE
8
BLACK
6
CONTINUOUS
10
154.1374989999999912
20
-126.2062499999999972
11
141.1375009999999861
21
-126.2062499999999972
0
LINE
8
BLACK
6
CONTINUOUS
10
135.5875000000000057
20
-139.7062489999999855
11
135.5875000000000057
21
-126.7062519999999921
0
ARC
8
BLACK
10
306.5374999999999659
20
-139.7061999999999955
40
0.500000002401
50
-90.00011458
51
-0.00561499
0
ARC
8
BLACK
10
226.8624999999999829
20
-145.7562999999999818
40
0.500000002401
50
89.99988542
51
179.99438501
0
LINE
8
BLACK
6
CONTINUOUS
10
155.9000000000000057
20
-164.3062500000000057
11
155.9000000000000057
21
-163.8062520000000006
0
ARC
8
BLACK
10
277.9624999999999773
20
-145.7562999999999818
40
0.5000500000009999
50
0.00561499
51
90.00011458
0
ARC
8
BLACK
10
163.6624999999999943
20
-158.7562000000000069
40
0.500000002401
50
-90.00011458
51
-0.00561499
0
LINE
8
BLACK
6
CONTINUOUS
10
197.7874999999999943
20
-126.7062509999999946
11
197.7874999999999943
21
-130.2062489999999855
0
ARC
8
BLACK
10
97.2749999999999915
20
-117.1563000000000017
40
0.5000500000009999
50
0.00561499
51
90.00011458
0
ARC
8
BLACK
10
222.0431999999999846
20
-177.8061999999999898
40
0.5000500073952604
50
-89.99014611
51
-0.00985389
0
ARC
8
BLACK
10
212.5749999999999886
20
-107.6563000000000017
40
0.500000002401
50
89.99988542
51
179.99438501
0
ARC
8
BLACK
10
278.9812999999999761
20
-161.915300000000002
40
0.7937000015749023
50
-269.99639104
51
-90.00360941
0
LINE
8
BLACK
6
CONTINUOUS
10
87.462498999999994
20
-107.15625
11
74.4625010000000032
21
-107.15625
0
LINE
8
BLACK
6
CONTINUOUS
10
245.125
20
-120.6562489999999883
11
245.125
21
-107.656251999999995
0
ARC
8
BLACK
10
217.3374999999999773
20
-139.7061999999999955
40
0.5000500000009999
50
-179.99438501
51
-89.99988542
0
LINE
8
BLACK
6
CONTINUOUS
10
288.2749999999999773
20
-107.6562509999999975
11
288.2749999999999773
21
-120.6562489999999883
0
LINE
8
BLACK
6
CONTINUOUS
10
112.5625009999999975
20
-159.2562499999999943
11
125.5624989999999883
21
-159.2562499999999943
0
LINE
8
BLACK
6
CONTINUOUS
10
164.4499999999999886
20
-88.6062510000000003
11
164.4499999999999886
21
-101.6062489999999912
0
LINE
8
BLACK
6
CONTINUOUS
10
221.5999999999999943
20
-88.6062510000000003
11
221.5999999999999943
21
-101.6062489999999912
0
LINE
8
BLACK
6
CONTINUOUS
10
341.1692499999999768
20
-145.2562499999999943
11
346.6499999999999773
21
-145.2562499999999943
0
LINE
8
BLACK
6
CONTINUOUS
10
262.5812500000000114
20
-164.3062500000000057
11
260.2000009999999861
21
-164.3062500000000057
0
ARC
8
BLACK
10
322.0557000000000016
20
-140.7061999999999955
40
0.5000500073952604
50
-89.99014611
51
-0.00985389
0
LINE
8
BLACK
6
CONTINUOUS
10
251.1437499999999829
20
-177.8062860000000001
11
251.1437499999999829
21
-174.3062510000000032
0
LINE
8
BLACK
6
CONTINUOUS
10
322.5557499999999891
20
-140.7062860000000057
11
322.5557499999999891
21
-140.2062499999999829
0
ARC
8
BLACK
10
217.8624999999999829
20
-123.8152999999999935
40
0.7937
50
-270.00000000
51
-90.00000000
0
LINE
8
BLACK
6
CONTINUOUS
10
144.6124989999999855
20
-145.2562499999999943
11
131.6125009999999804
21
-145.2562499999999943
0
LINE
8
BLACK
6
CONTINUOUS
10
345.1374999999999886
20
-107.9152500000000003
11
345.1374999999999886
21
-107.656251999999995
0
ARC
8
BLACK
10
193.2374999999999829
20
-130.2061999999999955
40
0.5000500000009999
50
-179.99438501
51
-89.99988542
0
LINE
8
BLACK
6
CONTINUOUS
10
216.8374999999999773
20
-126.7062509999999946
11
216.8374999999999773
21
-139.7062489999999855
0
ARC
8
BLACK
10
69.7000000000000028
20
-88.6062999999999903
40
0.500000002401
50
89.99988542
51
179.99438501
0
LINE
8
BLACK
6
CONTINUOUS
10
283.2249999999999659
20
-120.6562489999999883
11
283.2249999999999659
21
-107.656251999999995
0
LINE
8
BLACK
6
CONTINUOUS
10
215.5432500000000005
20
-163.8062139999999829
11
215.5432500000000005
21
-164.3062500000000057
0
ARC
8
BLACK
10
79.1681999999999988
20
-159.7562000000000069
40
0.5000500073952604
50
-89.99003153
51
-0.00985389
0
ARC
8
BLACK
10
310.2062999999999988
20
-145.7562999999999818
40
0.5000500073952604
50
90.00996847
51
179.99014611
0
ARC
8
BLACK
10
217.3374999999999773
20
-126.7062999999999988
40
0.500000002401
50
89.99988542
51
179.99438501
0
LINE
8
BLACK
6
CONTINUOUS
10
224.4813699999999983
20
-178.3062500000000057
11
237.481285999999983
21
-178.3062500000000057
0
LINE
8
BLACK
6
CONTINUOUS
10
212.5750009999999861
20
-121.15625
11
225.5749989999999912
21
-121.15625
0
ARC
8
BLACK
10
279.25
20
-88.6062999999999903
40
0.500000002401
50
89.99988542
51
179.99438501
0
LINE
8
BLACK
6
CONTINUOUS
10
346.6499999999999773
20
-145.2562499999999943
11
346.6499999999999773
21
-142.7312489999999912
0
ARC
8
BLACK
10
266.2812999999999874
20
-104.7652999999999963
40
0.7937000015749023
50
-269.99639104
51
-90.00360941
0
LINE
8
BLACK
6
CONTINUOUS
10
310.2062500000000114
20
-178.3062500000000057
11
320.8249999999999886
21
-178.3062500000000057
0
ARC
8
BLACK
10
239.919399999999996
20
-177.8060999999999865
40
0.5001500010236929
50
-179.20857470
51
-90.00366583
0
ARC
8
BLACK
10
117.3249999999999886
20
-120.6561999999999983
40
0.5000500000009999
50
-179.99438501
51
-89.99988542
0
ARC
8
BLACK
10
82.7000000000000028
20
-88.6062999999999903
40
0.5000500000009999
50
0.00561499
51
90.00011458
0
LINE
8
BLACK
6
CONTINUOUS
10
173.6875
20
-139.7062489999999855
11
173.6875
21
-126.7062519999999921
0
LINE
8
BLACK
6
CONTINUOUS
10
97.0443709999999982
20
-160.2562499999999943
11
103.0442859999999996
21
-160.2562499999999943
0
LINE
8
BLACK
6
CONTINUOUS
10
307.3249999999999886
20
-164.8062510000000032
11
307.3249999999999886
21
-177.8062489999999798
0
ARC
8
BLACK
10
321.8249999999999886
20
-117.1563000000000017
40
0.500000002401
50
89.99988542
51
179.99438501
0
LINE
8
BLACK
6
CONTINUOUS
10
326.875
20
-102.1062499999999886
11
330.3499999999999659
21
-102.1062499999999886
0
ARC
8
BLACK
10
201.1937999999999818
20
-123.8152999999999935
40
0.7938000015747039
50
-90.00360941
51
90.00360896
0
ARC
8
BLACK
10
74.4624999999999915
20
-107.6563000000000017
40
0.500000002401
50
89.99988542
51
179.99438501
0
ARC
8
BLACK
10
155.4249999999999829
20
-120.6561999999999983
40
0.5000500000009999
50
-179.99438501
51
-89.99988542
0
ARC
8
BLACK
10
347.0686999999999784
20
-130.3651999999999873
40
0.50005000249975
50
-89.99427099
51
-0.00572901
0
LINE
8
BLACK
6
CONTINUOUS
10
283.5124999999999886
20
-145.7562509999999918
11
283.5124999999999886
21
-158.7562489999999968
0
LINE
8
BLACK
6
CONTINUOUS
10
231.6250009999999975
20
-121.15625
11
244.6249990000000025
21
-121.15625
0
ARC
8
BLACK
10
259.1999999999999886
20
-174.3061999999999898
40
0.4999500000010001
50
-0.00595876
51
90.00011460
0
LINE
8
BLACK
6
CONTINUOUS
10
273.1999999999999886
20
-178.3062500000000057
11
275.5812859999999773
21
-178.3062500000000057
0
ARC
8
BLACK
10
316.0559000000000083
20
-140.7060999999999922
40
0.5001500008407478
50
-179.20032817
51
-90.00332216
0
ARC
8
BLACK
10
320.8249999999999886
20
-120.6561999999999983
40
0.500000002401
50
-90.00011458
51
-0.00561499
0
LINE
8
BLACK
6
CONTINUOUS
10
245.9192499999999768
20
-178.3062500000000057
11
250.6437859999999773
21
-178.3062500000000057
0
CIRCLE
8
BLACK
10
327.6125000000000114
20
-171.3062500000000057
40
1.2
0
CIRCLE
8
BLACK
10
348.6624999999999659
20
-109.3937499999999972
40
1.2
0
ARC
8
BLACK
10
168.4249999999999829
20
-120.6561999999999983
40
0.500000002401
50
-90.00011458
51
-0.00561499
0
LINE
8
BLACK
6
CONTINUOUS
10
274.4875010000000088
20
-140.2062499999999829
11
287.4874990000000139
21
-140.2062499999999829
0
LINE
8
BLACK
6
CONTINUOUS
10
69.9500000000000028
20
-145.2312499999999886
11
67.2000000000000028
21
-145.2312499999999886
0
ARC
8
BLACK
10
197.
20
-101.6062000000000012
40
0.500000002401
50
-90.00011458
51
-0.00561499
0
LINE
8
BLACK
6
CONTINUOUS
10
146.4249999999999829
20
-124.6089999999999947
11
201.1937999999999818
21
-124.6089999999999947
0
LINE
8
BLACK
6
CONTINUOUS
10
140.0749999999999886
20
-161.121499
11
105.9437499999999943
21
-161.1214999999999975
0
ARC
8
BLACK
10
332.9687000000000126
20
-125.7061999999999955
40
0.50005000249975
50
-89.99427099
51
-0.00572901
0
ARC
8
BLACK
10
177.9499999999999886
20
-88.6062999999999903
40
0.5000500000009999
50
0.00561499
51
90.00011458
0
LINE
8
BLACK
6
CONTINUOUS
10
324.4370000000000118
20
-88.1062500000000028
11
318.4370000000000118
21
-88.1062500000000028
0
ARC
8
BLACK
10
345.931699999999978
20
-140.7061999999999955
40
0.5000500073952604
50
-89.99014611
51
-0.00985389
0
ARC
8
BLACK
10
349.3999999999999773
20
-158.7562000000000069
40
0.500000002401
50
-90.00011458
51
-0.00561499
0
ARC
8
BLACK
10
126.8499999999999943
20
-88.6062999999999903
40
0.500000002401
50
89.99988542
51
179.99438501
0
LINE
8
BLACK
6
CONTINUOUS
10
277.9624989999999798
20
-145.2562499999999943
11
264.9625009999999747
21
-145.2562499999999943
0
LINE
8
BLACK
6
CONTINUOUS
10
206.5249989999999798
20
-107.15625
11
193.5250010000000032
21
-107.15625
0
ARC
8
BLACK
10
76.8438999999999908
20
-139.7060999999999922
40
0.5001500008997301
50
-179.20032817
51
-90.00343672
0
LINE
8
BLACK
6
CONTINUOUS
10
317.3500009999999634
20
-102.1062499999999886
11
317.9370000000000118
21
-102.1062499999999886
0
ARC
8
BLACK
10
349.8999999999999773
20
-88.1062000000000012
40
1.9999500000002499
50
-0.00140375
51
89.99997135
0
LINE
8
BLACK
6
CONTINUOUS
10
347.5187500000000114
20
-177.8062860000000001
11
347.5187500000000114
21
-164.8135629999999878
0
LINE
8
BLACK
6
CONTINUOUS
10
221.3125
20
-158.7562489999999968
11
221.3125
21
-145.7562519999999893
0
CIRCLE
8
BLACK
10
285.75
20
-123.1812499999999915
40
1.2
0
LINE
8
BLACK
6
CONTINUOUS
10
150.6437499999999829
20
-178.3062500000000057
11
155.4000000000000057
21
-178.3062500000000057
0
ARC
8
BLACK
10
309.9375
20
-142.8652999999999906
40
0.7938
50
-90.00000000
51
90.00000000
0
ARC
8
BLACK
10
251.6437999999999988
20
-168.3061999999999898
40
0.5000500001439856
50
-180.79593676
51
-90.00137496
0
ARC
8
BLACK
10
231.625
20
-107.6563000000000017
40
0.500000002401
50
89.99988542
51
179.99438501
0
ARC
8
BLACK
10
279.25
20
-101.6062000000000012
40
0.5000500000009999
50
-179.99438501
51
-89.99988542
0
ARC
8
BLACK
10
216.0432999999999879
20
-163.8062999999999931
40
0.5000500073952604
50
90.00996847
51
179.99014611
0
ARC
8
BLACK
10
174.4749999999999943
20
-107.6563000000000017
40
0.500000002401
50
89.99988542
51
179.99438501
0
LINE
8
BLACK
6
CONTINUOUS
10
330.3499999999999659
20
-88.1062500000000028
11
326.875
21
-88.1062500000000028
0
LINE
8
BLACK
6
CONTINUOUS
10
318.4370010000000093
20
-103.1062499999999886
11
324.4369989999999575
21
-103.1062499999999886
0
LINE
8
BLACK
6
CONTINUOUS
10
273.9875000000000114
20
-126.7062509999999946
11
273.9875000000000114
21
-139.7062489999999855
0
ARC
8
BLACK
10
160.1875
20
-139.7061999999999955
40
0.5000500000009999
50
-179.99438501
51
-89.99988542
0
ARC
8
BLACK
10
314.6999999999999886
20
-104.7652999999999963
40
0.7938
50
-90.00000000
51
90.00000000
0
LINE
8
BLACK
6
CONTINUOUS
10
263.1999999999999886
20
-164.3062500000000057
11
262.5812500000000114
21
-164.3062500000000057
0
ARC
8
BLACK
10
107.7999999999999972
20
-88.6062999999999903
40
0.500000002401
50
89.99988542
51
179.99438501
0
LINE
8
BLACK
6
CONTINUOUS
10
317.9370000000000118
20
-102.1062499999999886
11
317.9370000000000118
21
-102.6062489999999912
0
ARC
8
BLACK
10
188.7624999999999886
20
-158.7562000000000069
40
0.5000500000009999
50
-179.99438501
51
-89.99988542
0
LINE
8
BLACK
6
CONTINUOUS
10
330.6374989999999912
20
-111.65625
11
321.8250009999999861
21
-111.65625
0
LINE
8
BLACK
6
CONTINUOUS
10
197.2874989999999968
20
-130.7062499999999829
11
193.2375009999999804
21
-130.7062499999999829
0
ARC
8
BLACK
10
101.75
20
-101.6062000000000012
40
0.500000002401
50
-90.00011458
51
-0.00561499
0
LINE
8
BLACK
6
CONTINUOUS
10
345.6374999999999886
20
-115.4152500000000003
11
346.0186999999999671
21
-115.4152500000000003
0
LINE
8
BLACK
6
CONTINUOUS
10
258.9124989999999684
20
-145.2562499999999943
11
245.9125009999999918
21
-145.2562499999999943
0
LINE
8
BLACK
6
CONTINUOUS
10
211.2874989999999968
20
-126.2062499999999972
11
198.2875009999999918
21
-126.2062499999999972
0
LINE
8
BLACK
6
CONTINUOUS
10
331.6375009999999861
20
-178.3062500000000057
11
334.0187500000000114
21
-178.3062500000000057
0
LINE
8
BLACK
6
CONTINUOUS
10
198.7942499999999768
20
-164.3062500000000057
11
198.7942499999999768
21
-163.8135629999999878
0
LINE
8
BLACK
6
CONTINUOUS
10
111.274998999999994
20
-107.15625
11
98.2750009999999889
21
-107.15625
0
ARC
8
BLACK
10
94.6062000000000012
20
-158.7562000000000069
40
0.5000500073952604
50
-89.99014611
51
-0.00985389
0
ARC
8
BLACK
10
222.0999999999999943
20
-101.6062000000000012
40
0.5000500000009999
50
-179.99438501
51
-89.99988542
0
LINE
8
BLACK
6
CONTINUOUS
10
347.0186289999999758
20
-164.3062500000000057
11
344.6374999999999886
21
-164.3062500000000057
0
ARC
8
BLACK
10
87.4624999999999915
20
-107.6561999999999983
40
0.4999500000010001
50
-0.00595876
51
90.00011460
0
ARC
8
BLACK
10
323.2061999999999671
20
-177.8061999999999898
40
0.5000500073952604
50
-89.99014611
51
-0.00985389
0
LINE
8
BLACK
6
CONTINUOUS
10
203.0499999999999829
20
-164.3062500000000057
11
198.7942499999999768
21
-164.3062500000000057
0
ARC
8
BLACK
10
305.9687999999999874
20
-161.915300000000002
40
0.7938000015747039
50
-90.00360941
51
90.00360896
0
ARC
8
BLACK
10
107.7999999999999972
20
-101.6062000000000012
40
0.5000500000009999
50
-179.99438501
51
-89.99988542
0
ARC
8
BLACK
10
193.5249999999999773
20
-120.6561999999999983
40
0.5000500000009999
50
-179.99438501
51
-89.99988542
0
ARC
8
BLACK
10
298.3000000000000114
20
-88.6062999999999903
40
0.500000002401
50
89.99988542
51
179.99438501
0
LINE
8
BLACK
6
CONTINUOUS
10
346.4317499999999654
20
-140.7062860000000057
11
346.4317499999999654
21
-131.3652500000000032
0
LINE
8
BLACK
6
CONTINUOUS
10
149.4000000000000057
20
-163.3062500000000057
11
144.6437129999999911
21
-163.3062500000000057
0
ARC
8
BLACK
10
69.7000000000000028
20
-101.6062000000000012
40
0.5000500000009999
50
-179.99438501
51
-89.99988542
0
LINE
8
BLACK
6
CONTINUOUS
10
132.7062499999999829
20
-178.3062500000000057
11
135.0874989999999798
21
-178.3062500000000057
  0
ENDSEC
  0
EOF
